<svg width="48" height="47" viewBox="0 0 48 47" fill="none" xmlns="http://www.w3.org/2000/svg">
<ellipse cx="24" cy="23.5" rx="24" ry="23.5" fill="#D81100"/>
<path d="M24.1518 19.7246C22.3104 19.7246 20.8164 21.234 20.8164 23.0945C20.8164 24.9549 22.3104 26.4644 24.1518 26.4644C25.9933 26.4644 27.4872 24.9549 27.4872 23.0945C27.4872 21.234 25.9933 19.7246 24.1518 19.7246ZM24.1518 25.2592C22.9705 25.2592 22.0093 24.288 22.0093 23.0945C22.0093 21.901 22.9705 20.9298 24.1518 20.9298C25.3331 20.9298 26.2944 21.901 26.2944 23.0945C26.2944 24.288 25.3331 25.2592 24.1518 25.2592Z" fill="white"/>
<path d="M26.7899 29.9392H21.3814C19.1347 29.9392 17.3164 28.0904 17.3164 25.8321V20.3561C17.3164 18.0861 19.1463 16.249 21.3814 16.249H26.7899C29.0367 16.249 30.855 18.0978 30.855 20.3561V25.8204C30.855 28.0904 29.0251 29.9275 26.7899 29.9275V29.9392ZM21.3814 17.5361C19.8411 17.5361 18.5904 18.7998 18.5904 20.3561V25.8204C18.5904 27.3767 19.8411 28.6404 21.3814 28.6404H26.7899C28.3302 28.6404 29.581 27.3767 29.581 25.8204V20.3561C29.581 18.7998 28.3302 17.5361 26.7899 17.5361H21.3814Z" fill="white"/>
</svg>
