<svg width="48" height="47" viewBox="0 0 48 47" fill="none" xmlns="http://www.w3.org/2000/svg">
<ellipse cx="24" cy="23.5" rx="24" ry="23.5" fill="#D81100"/>
<path d="M17.6691 20.7539H20.4602V29.8105H17.6691V20.7539ZM19.0589 16.249C19.9506 16.249 20.6687 16.9862 20.6687 17.8755C20.6687 18.7647 19.9506 19.5136 19.0589 19.5136C18.1671 19.5136 17.4375 18.7764 17.4375 17.8755C17.4375 16.9745 18.1555 16.249 19.0589 16.249Z" fill="white"/>
<path d="M22.2051 20.7534H24.8804V21.9938H24.9151C25.2857 21.28 26.2006 20.5311 27.5556 20.5311C30.3815 20.5311 30.8911 22.4033 30.8911 24.8488V29.81H28.1115V25.4104C28.1115 24.3573 28.0884 23.0117 26.6639 23.0117C25.2394 23.0117 24.9962 24.1584 24.9962 25.3402V29.8217H22.2167V20.7534H22.2051Z" fill="white"/>
</svg>
