<svg width="18" height="19" viewBox="0 0 18 19" fill="none" xmlns="http://www.w3.org/2000/svg">
<mask id="mask0_4766_3103" style="mask-type:alpha" maskUnits="userSpaceOnUse" x="0" y="0" width="18" height="19">
<rect y="0.792458" width="17.5806" height="17.5806" fill="#D9D9D9"/>
</mask>
<g mask="url(#mask0_4766_3103)">
<path d="M14.6136 16.1755C13.0875 16.1755 11.5797 15.8429 10.0902 15.1775C8.60075 14.5121 7.24558 13.569 6.02471 12.3481C4.80383 11.1272 3.86071 9.77206 3.19533 8.28259C2.52995 6.79312 2.19727 5.28535 2.19727 3.75925C2.19727 3.53949 2.27052 3.35636 2.41702 3.20986C2.56353 3.06335 2.74666 2.9901 2.96642 2.9901H5.93314C6.10406 2.9901 6.25667 3.04809 6.39097 3.16408C6.52527 3.28006 6.60462 3.41741 6.62904 3.57612L7.10518 6.13996C7.1296 6.3353 7.12349 6.50011 7.08687 6.63441C7.05024 6.76871 6.98309 6.88469 6.88542 6.98236L5.10905 8.77705C5.35323 9.22877 5.64318 9.66523 5.97892 10.0864C6.31466 10.5076 6.68398 10.9136 7.08687 11.3043C7.46534 11.6827 7.86212 12.0337 8.27722 12.3573C8.69232 12.6808 9.13183 12.9769 9.59577 13.2454L11.3172 11.524C11.4271 11.4141 11.5705 11.3317 11.7476 11.2768C11.9246 11.2218 12.0986 11.2066 12.2695 11.231L14.7967 11.7438C14.9676 11.7926 15.108 11.8811 15.2179 12.0093C15.3278 12.1375 15.3827 12.281 15.3827 12.4397V15.4064C15.3827 15.6262 15.3095 15.8093 15.163 15.9558C15.0164 16.1023 14.8333 16.1755 14.6136 16.1755Z" fill="#D81100"/>
</g>
</svg>
