<svg width="18" height="18" viewBox="0 0 18 18" fill="none" xmlns="http://www.w3.org/2000/svg">
<path d="M13.2101 3.43866C12.6641 3.43866 12.2188 3.88866 12.2188 4.44028C12.2188 4.99189 12.6641 5.44189 13.2101 5.44189C13.7561 5.44189 14.2015 4.99189 14.2015 4.44028C14.2015 3.88866 13.7561 3.43866 13.2101 3.43866Z" fill="#101763"/>
<path d="M8.82931 4.71686C6.54484 4.71686 4.69141 6.58944 4.69141 8.89751C4.69141 11.2056 6.54484 13.0782 8.82931 13.0782C11.1138 13.0782 12.9672 11.2056 12.9672 8.89751C12.9672 6.58944 11.1138 4.71686 8.82931 4.71686ZM8.82931 11.583C7.3638 11.583 6.17128 10.3782 6.17128 8.89751C6.17128 7.41686 7.3638 6.21202 8.82931 6.21202C10.2948 6.21202 11.4873 7.41686 11.4873 8.89751C11.4873 10.3782 10.2948 11.583 8.82931 11.583Z" fill="#101763"/>
<path d="M12.1043 17.3895H5.39463C2.60729 17.3895 0.351562 15.0959 0.351562 12.2943V5.50075C0.351562 2.68462 2.62166 0.405579 5.39463 0.405579H12.1043C14.8917 0.405579 17.1474 2.69913 17.1474 5.50075V12.2798C17.1474 15.0959 14.8773 17.375 12.1043 17.375V17.3895ZM5.39463 2.00236C3.48372 2.00236 1.93201 3.5701 1.93201 5.50075V12.2798C1.93201 14.2105 3.48372 15.7782 5.39463 15.7782H12.1043C14.0152 15.7782 15.567 14.2105 15.567 12.2798V5.50075C15.567 3.5701 14.0152 2.00236 12.1043 2.00236H5.39463Z" fill="#101763"/>
</svg>
