<svg width="17" height="18" viewBox="0 0 17 18" fill="none" xmlns="http://www.w3.org/2000/svg">
<path d="M0.595943 5.9943H4.05857V17.2298H0.595943V5.9943ZM2.32007 0.405579C3.42639 0.405579 4.31718 1.3201 4.31718 2.42333C4.31718 3.52655 3.42639 4.45559 2.32007 4.45559C1.21376 4.45559 0.308594 3.54107 0.308594 2.42333C0.308594 1.30558 1.19939 0.405579 2.32007 0.405579Z" fill="#101763"/>
<path d="M6.22656 5.99382H9.5455V7.53254H9.5886C10.0484 6.64705 11.1834 5.71802 12.8644 5.71802C16.3702 5.71802 17.0023 8.0406 17.0023 11.0745V17.2293H13.5541V11.7713C13.5541 10.4648 13.5254 8.79544 11.7581 8.79544C9.9909 8.79544 9.68917 10.218 9.68917 11.6842V17.2439H6.24092V5.99382H6.22656Z" fill="#101763"/>
</svg>
