<svg width="124" height="26" viewBox="0 0 124 26" fill="none" xmlns="http://www.w3.org/2000/svg">
<g clip-path="url(#clip0_4511_216)">
<path d="M24.4179 9.51823C21.8292 12.1718 17.6134 12.1883 15.0043 9.55943C12.3912 6.93471 12.371 2.65357 14.9597 0L24.4179 9.51823Z" fill="#D81100"/>
<path d="M12.5584 25.3902C5.65237 25.419 0.0326018 19.7617 0.000141033 12.7528C-0.0323197 5.73978 5.54281 0.0329636 12.4448 0L12.5584 25.3902Z" fill="#D81100"/>
<path d="M45.6642 21.0679C44.5687 21.8426 43.2175 22.2258 41.6107 22.2258C40.5151 22.2258 39.5494 22.0445 38.7176 21.6819C37.8858 21.3193 37.1839 20.8084 36.6158 20.1532C36.0477 19.4981 35.6217 18.7275 35.3376 17.8499C35.0536 16.9722 34.9116 16.0204 34.9116 14.9903C34.9116 13.9602 35.0536 12.9795 35.3376 12.1019C35.6217 11.2242 36.0396 10.4619 36.5874 9.81502C37.1352 9.16811 37.8209 8.66129 38.6446 8.29869C39.4683 7.93609 40.3975 7.75479 41.4362 7.75479C42.475 7.75479 43.4082 7.92785 44.24 8.26985C45.0718 8.61185 45.7575 9.11042 46.2972 9.75733C46.8369 10.4042 47.1736 11.2077 47.3116 12.1595H51.5437C51.3651 10.5196 50.8458 9.08982 49.9856 7.87017C49.1253 6.65052 47.9689 5.69457 46.5204 5.01058C45.0718 4.32247 43.3757 3.98047 41.4362 3.98047C39.4967 3.98047 37.9629 4.2895 36.6036 4.91169C35.2403 5.52976 34.1244 6.35796 33.2561 7.38396C32.3837 8.41407 31.7386 9.55955 31.3166 10.8163C30.8946 12.073 30.6836 13.3504 30.6836 14.6483V15.2787C30.6836 16.4613 30.8905 17.6768 31.3003 18.9253C31.7142 20.1738 32.3553 21.3358 33.2236 22.4112C34.096 23.4866 35.22 24.3561 36.6036 25.0112C37.9832 25.6705 39.6549 25.996 41.6107 25.996C43.5664 25.996 45.4005 25.6252 46.8693 24.8835C48.3382 24.1377 49.4946 23.1488 50.3345 21.9085C51.1744 20.6683 51.6938 19.3044 51.8926 17.821H47.6606C47.4252 19.2137 46.7598 20.2974 45.6642 21.0679Z" fill="white"/>
<path d="M62.6206 9.44415H62.4502C61.2491 9.44415 60.2591 9.72847 59.48 10.3012C58.7537 10.8327 58.1978 11.595 57.8043 12.5757V4.58203H53.8887V25.4603H57.8043V16.4819C57.8043 15.4518 58.1005 14.6194 58.6929 13.9808C59.2853 13.3421 60.0603 13.0248 61.0138 13.0248C61.8984 13.0248 62.6206 13.3133 63.1846 13.8984C63.7486 14.4793 64.0286 15.2581 64.0286 16.2305V25.4686H67.9442V16.6014C67.9442 14.2774 67.4938 12.5056 66.593 11.2819C65.6922 10.0622 64.3694 9.4524 62.6206 9.4524" fill="white"/>
<path d="M75.8845 13.288C76.485 12.8801 77.2153 12.6741 78.0796 12.6741C78.9439 12.6741 79.658 12.8636 80.218 13.2468C80.782 13.63 81.208 14.1698 81.5002 14.8744C81.6665 15.2741 81.7761 15.7273 81.8491 16.2177H74.1721C74.2492 15.7809 74.3629 15.3812 74.513 15.0145C74.8214 14.2728 75.2799 13.6959 75.8804 13.2839M82.2305 10.482C81.1147 9.74856 79.727 9.38184 78.0755 9.38184C76.8177 9.38184 75.7059 9.60434 74.7402 10.0535C73.7704 10.5026 72.9711 11.1001 72.3341 11.8541C71.697 12.6081 71.2101 13.4652 70.8855 14.4294C70.5568 15.3936 70.3945 16.3866 70.3945 17.4167V17.9606C70.3945 18.9536 70.5568 19.9261 70.8855 20.8779C71.2142 21.8297 71.7011 22.6909 72.3503 23.4655C72.9995 24.2402 73.8151 24.8541 74.8011 25.3115C75.7871 25.7688 76.9354 25.9955 78.25 25.9955C79.5647 25.9955 80.6278 25.7771 81.6138 25.3403C82.5998 24.9035 83.4113 24.2814 84.0483 23.482C84.6854 22.6826 85.1195 21.7473 85.3427 20.676H81.7112C81.5407 21.2487 81.1593 21.7308 80.5547 22.1222C79.9542 22.5137 79.1833 22.7074 78.246 22.7074C77.3087 22.7074 76.5012 22.4931 75.8804 22.0646C75.2596 21.636 74.8011 21.0468 74.5008 20.2928C74.306 19.8024 74.1803 19.2585 74.1113 18.6776H85.5943V17.2189C85.5943 15.8468 85.3143 14.5654 84.7503 13.3704C84.1863 12.1796 83.3464 11.2154 82.2305 10.482Z" fill="white"/>
<path d="M95.4179 22.1972H94.0139L90.3865 9.93066H86.3613L91.1493 25.4565H92.3016H94.5901H94.9797H96.4404H98.1649L102.304 9.93066H98.53L95.4179 22.1972Z" fill="white"/>
<path d="M120.087 4.58203H118.172V7.55699H120.087V25.4562H123.999V7.55699V4.58203H120.087Z" fill="white"/>
<path d="M112.205 19.7125C112.169 20.5489 111.999 21.2123 111.698 21.6985C111.398 22.1847 111.017 22.5267 110.558 22.7245C110.1 22.9264 109.596 23.0253 109.053 23.0253C108.152 23.0253 107.462 22.8069 106.983 22.3701C106.505 21.9334 106.265 21.3606 106.265 20.6519C106.265 19.9432 106.505 19.3746 106.983 18.9378C107.462 18.501 108.152 18.2827 109.053 18.2827H112.205V19.7125ZM105.969 9.88107V12.8519H112.205V15.8804H109.105C107.754 15.8804 106.569 16.0617 105.555 16.4243C104.541 16.7869 103.762 17.3308 103.218 18.056C102.674 18.7812 102.402 19.7166 102.402 20.8621C102.402 21.9086 102.63 22.8069 103.092 23.5486C103.551 24.2903 104.196 24.863 105.019 25.2627C105.843 25.6624 106.813 25.8643 107.921 25.8643C109.028 25.8643 109.897 25.6706 110.639 25.2792C111.382 24.8877 111.962 24.3232 112.384 23.5774C112.575 23.2396 112.725 22.8522 112.851 22.4443V25.4646H115.975V9.87695H105.965L105.969 9.88107Z" fill="white"/>
</g>
<defs>
<clipPath id="clip0_4511_216">
<rect width="124" height="26" fill="white"/>
</clipPath>
</defs>
</svg>
