<svg width="19" height="18" viewBox="0 0 19 18" fill="none" xmlns="http://www.w3.org/2000/svg">
<mask id="mask0_4766_3106" style="mask-type:alpha" maskUnits="userSpaceOnUse" x="0" y="0" width="19" height="18">
<rect x="0.511719" y="0.16608" width="17.5806" height="17.5806" fill="#D9D9D9"/>
</mask>
<g mask="url(#mask0_4766_3106)">
<path d="M3.44161 14.8166C3.03872 14.8166 2.69383 14.6731 2.40692 14.3862C2.12002 14.0993 1.97656 13.7544 1.97656 13.3515V4.56123C1.97656 4.15834 2.12002 3.81344 2.40692 3.52654C2.69383 3.23963 3.03872 3.09618 3.44161 3.09618H15.162C15.5649 3.09618 15.9098 3.23963 16.1967 3.52654C16.4836 3.81344 16.6271 4.15834 16.6271 4.56123V13.3515C16.6271 13.7544 16.4836 14.0993 16.1967 14.3862C15.9098 14.6731 15.5649 14.8166 15.162 14.8166H3.44161ZM9.30181 9.6889L15.162 6.02628V4.56123L9.30181 8.22385L3.44161 4.56123V6.02628L9.30181 9.6889Z" fill="#D81100"/>
</g>
</svg>
