<svg width="112" height="118" viewBox="0 0 112 118" fill="none" xmlns="http://www.w3.org/2000/svg">
<path d="M57.7607 117.8C48.4274 117.8 40.1607 116.2 32.9607 113C25.8941 109.8 19.9607 105.533 15.1607 100.2C10.4941 94.7333 6.89407 88.6667 4.36073 82C1.96073 75.2 0.760742 68.2666 0.760742 61.2V57.2C0.760742 49.8666 1.96073 42.8667 4.36073 36.2C6.89407 29.4 10.4941 23.3333 15.1607 18C19.8274 12.6666 25.6274 8.46665 32.5607 5.39998C39.6274 2.19998 47.6274 0.599976 56.5607 0.599976C68.2941 0.599976 78.1607 3.26665 86.1607 8.59998C94.2941 13.8 100.494 20.6666 104.761 29.2C109.027 37.6 111.161 46.8 111.161 56.8V67.6H14.1607V49.4H91.7608L81.3607 57.8C81.3607 51.2667 80.4274 45.6667 78.5607 41C76.6941 36.3333 73.8941 32.8 70.1607 30.4C66.5607 27.8666 62.0274 26.6 56.5607 26.6C50.9607 26.6 46.2274 27.8666 42.3607 30.4C38.4941 32.9333 35.5607 36.6666 33.5607 41.6C31.5607 46.4 30.5607 52.3333 30.5607 59.4C30.5607 65.9333 31.4941 71.6667 33.3607 76.6C35.2274 81.4 38.1607 85.1333 42.1607 87.8C46.1607 90.4667 51.3607 91.8 57.7607 91.8C63.6274 91.8 68.4274 90.6666 72.1608 88.4C75.8941 86.1333 78.4274 83.3333 79.7607 80H109.161C107.561 87.3333 104.427 93.8667 99.7608 99.6C95.0941 105.333 89.2274 109.8 82.1607 113C75.0941 116.2 66.9607 117.8 57.7607 117.8Z" fill="url(#paint0_linear_4896_89)"/>
<defs>
<linearGradient id="paint0_linear_4896_89" x1="-122" y1="46" x2="495" y2="94" gradientUnits="userSpaceOnUse">
<stop stop-color="#101763"/>
<stop offset="1" stop-color="#D81100"/>
</linearGradient>
</defs>
</svg>
