<svg width="122" height="118" viewBox="0 0 122 118" fill="none" xmlns="http://www.w3.org/2000/svg">
<path d="M60.9373 117.8C51.3373 117.8 42.804 116.333 35.3373 113.4C27.8706 110.333 21.5373 106.2 16.3373 101C11.2706 95.8 7.40397 89.8667 4.7373 83.2C2.07064 76.4 0.737305 69.2667 0.737305 61.8V57.2C0.737305 49.6 2.07064 42.4 4.7373 35.6C7.5373 28.6666 11.5373 22.6 16.7373 17.4C22.0706 12.2 28.4707 8.13332 35.9373 5.19998C43.404 2.13331 51.7373 0.599976 60.9373 0.599976C70.404 0.599976 78.804 2.13331 86.1373 5.19998C93.604 8.13332 99.9373 12.2 105.137 17.4C110.337 22.6 114.337 28.6666 117.137 35.6C119.937 42.4 121.337 49.6 121.337 57.2V61.8C121.337 69.2667 120.004 76.4 117.337 83.2C114.671 89.8667 110.737 95.8 105.537 101C100.471 106.2 94.204 110.333 86.7373 113.4C79.2706 116.333 70.6707 117.8 60.9373 117.8ZM60.9373 90.8C67.204 90.8 72.404 89.4667 76.5373 86.8C80.6707 84.1333 83.804 80.4 85.9373 75.6C88.204 70.8 89.3373 65.4666 89.3373 59.6C89.3373 53.3333 88.204 47.8666 85.9373 43.2C83.6706 38.4 80.404 34.6 76.1373 31.8C72.004 29 66.9373 27.6 60.9373 27.6C55.0707 27.6 50.004 29 45.7373 31.8C41.4706 34.6 38.204 38.4 35.9373 43.2C33.804 47.8666 32.7373 53.3333 32.7373 59.6C32.7373 65.4666 33.804 70.8 35.9373 75.6C38.0707 80.4 41.2707 84.1333 45.5373 86.8C49.804 89.4667 54.9373 90.8 60.9373 90.8Z" fill="url(#paint0_linear_4896_92)"/>
<defs>
<linearGradient id="paint0_linear_4896_92" x1="-367" y1="46" x2="250" y2="94" gradientUnits="userSpaceOnUse">
<stop stop-color="#101763"/>
<stop offset="1" stop-color="#D81100"/>
</linearGradient>
</defs>
</svg>
