<svg width="12" height="12" viewBox="0 0 12 12" fill="none" xmlns="http://www.w3.org/2000/svg">
<path d="M8.93068 2.10645C8.55151 2.10645 8.24219 2.41897 8.24219 2.80206C8.24219 3.18515 8.55151 3.49767 8.93068 3.49767C9.30986 3.49767 9.61918 3.18515 9.61918 2.80206C9.61918 2.41897 9.30986 2.10645 8.93068 2.10645Z" fill="white"/>
<path d="M5.8874 2.99414C4.30086 2.99414 3.01367 4.29463 3.01367 5.89756C3.01367 7.50049 4.30086 8.80099 5.8874 8.80099C7.47394 8.80099 8.76113 7.50049 8.76113 5.89756C8.76113 4.29463 7.47394 2.99414 5.8874 2.99414ZM5.8874 7.76261C4.86962 7.76261 4.04143 6.92586 4.04143 5.89756C4.04143 4.86927 4.86962 4.03252 5.8874 4.03252C6.90518 4.03252 7.73337 4.86927 7.73337 5.89756C7.73337 6.92586 6.90518 7.76261 5.8874 7.76261Z" fill="white"/>
<path d="M8.16219 11.7952H3.50236C1.56658 11.7952 0 10.2023 0 8.25661V3.53855C0 1.58277 1.57656 0 3.50236 0H8.16219C10.098 0 11.6645 1.59285 11.6645 3.53855V8.24653C11.6645 10.2023 10.088 11.7851 8.16219 11.7851V11.7952ZM3.50236 1.10895C2.17525 1.10895 1.09761 2.19773 1.09761 3.53855V8.24653C1.09761 9.58734 2.17525 10.6761 3.50236 10.6761H8.16219C9.48929 10.6761 10.5669 9.58734 10.5669 8.24653V3.53855C10.5669 2.19773 9.48929 1.10895 8.16219 1.10895H3.50236Z" fill="white"/>
</svg>
