<svg width="16" height="16" viewBox="0 0 16 16" fill="none" xmlns="http://www.w3.org/2000/svg">
<g id="call">
<mask id="mask0_4766_1889" style="mask-type:alpha" maskUnits="userSpaceOnUse" x="0" y="0" width="16" height="16">
<rect id="Bounding box" width="15.6284" height="15.6284" fill="#D9D9D9"/>
</mask>
<g mask="url(#mask0_4766_1889)">
<path id="call_2" d="M12.9907 13.6749C11.6341 13.6749 10.2937 13.3792 8.96963 12.7877C7.64556 12.1962 6.44087 11.3578 5.35556 10.2725C4.27025 9.18718 3.43186 7.98249 2.84036 6.65842C2.24887 5.33434 1.95312 3.99399 1.95312 2.63736C1.95312 2.442 2.01824 2.27921 2.14848 2.14897C2.27872 2.01873 2.44151 1.95361 2.63687 1.95361H5.27416C5.42611 1.95361 5.56177 2.00517 5.68115 2.10827C5.80054 2.21137 5.87108 2.33347 5.89279 2.47456L6.31606 4.7537C6.33776 4.92735 6.33234 5.07387 6.29978 5.19325C6.26722 5.31264 6.20753 5.41574 6.1207 5.50257L4.54158 7.09797C4.75864 7.49953 5.0164 7.88753 5.31486 8.26196C5.61332 8.63639 5.94163 8.99725 6.29978 9.34455C6.63622 9.681 6.98895 9.99302 7.35795 10.2806C7.72696 10.5682 8.11767 10.8314 8.53008 11.0702L10.0604 9.53991C10.158 9.44223 10.2856 9.36897 10.4429 9.32013C10.6003 9.27129 10.755 9.25773 10.9069 9.27943L13.1535 9.73526C13.3054 9.77867 13.4302 9.85736 13.5279 9.97132C13.6256 10.0853 13.6744 10.2128 13.6744 10.3539V12.9912C13.6744 13.1865 13.6093 13.3493 13.4791 13.4796C13.3488 13.6098 13.186 13.6749 12.9907 13.6749Z" fill="#D81100"/>
</g>
</g>
</svg>
