<svg width="16" height="16" viewBox="0 0 16 16" fill="none" xmlns="http://www.w3.org/2000/svg">
<g id="location_on">
<mask id="mask0_4766_1885" style="mask-type:alpha" maskUnits="userSpaceOnUse" x="0" y="0" width="16" height="16">
<rect id="Bounding box" width="15.6284" height="15.6284" fill="#D9D9D9"/>
</mask>
<g mask="url(#mask0_4766_1885)">
<path id="location_on_2" d="M7.81494 7.81415C8.17309 7.81415 8.47969 7.68662 8.73474 7.43158C8.98979 7.17653 9.11731 6.86993 9.11731 6.51178C9.11731 6.15363 8.98979 5.84703 8.73474 5.59198C8.47969 5.33693 8.17309 5.20941 7.81494 5.20941C7.45679 5.20941 7.15019 5.33693 6.89514 5.59198C6.6401 5.84703 6.51257 6.15363 6.51257 6.51178C6.51257 6.86993 6.6401 7.17653 6.89514 7.43158C7.15019 7.68662 7.45679 7.81415 7.81494 7.81415ZM7.81494 14.326C6.0676 12.8391 4.76252 11.4581 3.8997 10.1828C3.03688 8.90759 2.60547 7.72732 2.60547 6.64202C2.60547 5.01406 3.12913 3.71711 4.17645 2.75119C5.22377 1.78527 6.4366 1.30231 7.81494 1.30231C9.19328 1.30231 10.4061 1.78527 11.4534 2.75119C12.5008 3.71711 13.0244 5.01406 13.0244 6.64202C13.0244 7.72732 12.593 8.90759 11.7302 10.1828C10.8674 11.4581 9.56228 12.8391 7.81494 14.326Z" fill="#D81100"/>
</g>
</g>
</svg>
