<svg width="16" height="16" viewBox="0 0 16 16" fill="none" xmlns="http://www.w3.org/2000/svg">
<g id="mail">
<mask id="mask0_4766_1894" style="mask-type:alpha" maskUnits="userSpaceOnUse" x="0" y="0" width="16" height="16">
<rect id="Bounding box" width="15.6284" height="15.6284" fill="#D9D9D9"/>
</mask>
<g mask="url(#mask0_4766_1894)">
<path id="mail_2" d="M2.60315 13.0237C2.245 13.0237 1.9384 12.8962 1.68335 12.6411C1.4283 12.3861 1.30078 12.0795 1.30078 11.7213V3.9071C1.30078 3.54895 1.4283 3.24235 1.68335 2.98731C1.9384 2.73226 2.245 2.60474 2.60315 2.60474H13.0221C13.3802 2.60474 13.6868 2.73226 13.9419 2.98731C14.1969 3.24235 14.3245 3.54895 14.3245 3.9071V11.7213C14.3245 12.0795 14.1969 12.3861 13.9419 12.6411C13.6868 12.8962 13.3802 13.0237 13.0221 13.0237H2.60315ZM7.81262 8.46539L13.0221 5.20947V3.9071L7.81262 7.16302L2.60315 3.9071V5.20947L7.81262 8.46539Z" fill="#D81100"/>
</g>
</g>
</svg>
