<svg width="85" height="85" viewBox="0 0 85 85" fill="none" xmlns="http://www.w3.org/2000/svg">
<mask id="mask0_1574_1042" style="mask-type:alpha" maskUnits="userSpaceOnUse" x="0" y="0" width="85" height="85">
<rect width="85" height="85" fill="#D9D9D9"/>
</mask>
<g mask="url(#mask0_1574_1042)">
<path d="M52.2779 66.2298C45.6428 66.2298 40.0228 63.9274 35.4178 59.3224C30.8129 54.7175 28.5104 49.0974 28.5104 42.4623C28.5104 35.8768 30.8129 30.2819 35.4178 25.6777C40.0228 21.0736 45.6428 18.7715 52.2779 18.7715C58.8635 18.7715 64.4583 21.0736 69.0625 25.6777C73.6667 30.2819 75.9688 35.8768 75.9688 42.4623C75.9688 49.0974 73.6667 54.7175 69.0625 59.3224C64.4583 63.9274 58.8635 66.2298 52.2779 66.2298ZM52.2396 63.7507C58.1424 63.7507 63.1597 61.6847 67.2917 57.5527C71.4236 53.4208 73.4896 48.4034 73.4896 42.5007C73.4896 36.5979 71.4236 31.5805 67.2917 27.4486C63.1597 23.3166 58.1424 21.2507 52.2396 21.2507C46.3368 21.2507 41.3194 23.3166 37.1875 27.4486C33.0556 31.5805 30.9896 36.5979 30.9896 42.5007C30.9896 48.4034 33.0556 53.4208 37.1875 57.5527C41.3194 61.6847 46.3368 63.7507 52.2396 63.7507ZM61.1823 53.3027L62.9531 51.5319L53.4792 42.0579V29.7507H51V43.0319L61.1823 53.3027ZM12.5729 29.5736V27.0944H24.9688V29.5736H12.5729ZM9.03125 43.7402V41.2611H24.9688V43.7402H9.03125ZM12.5729 57.9069V55.4277H24.9688V57.9069H12.5729Z" fill="url(#paint0_linear_1574_1042)"/>
</g>
<defs>
<linearGradient id="paint0_linear_1574_1042" x1="42.5" y1="18.7715" x2="42.5" y2="66.2298" gradientUnits="userSpaceOnUse">
<stop stop-color="#1C1B1F"/>
<stop offset="1" stop-color="#FF0000"/>
</linearGradient>
</defs>
</svg>
