<svg width="85" height="85" viewBox="0 0 85 85" fill="none" xmlns="http://www.w3.org/2000/svg">
<mask id="mask0_1580_3184" style="mask-type:alpha" maskUnits="userSpaceOnUse" x="0" y="0" width="85" height="85">
<rect width="85" height="85" fill="#D9D9D9"/>
</mask>
<g mask="url(#mask0_1580_3184)">
<path d="M28.8647 56.6667H65.6981C66.4064 56.6667 67.0557 56.3715 67.646 55.7812C68.2363 55.191 68.5314 54.5417 68.5314 53.8333V21.25H26.0314V53.8333C26.0314 54.5417 26.3266 55.191 26.9168 55.7812C27.5071 56.3715 28.1564 56.6667 28.8647 56.6667ZM28.8647 59.1458C27.33 59.1458 26.0609 58.6441 25.0575 57.6406C24.054 56.6372 23.5522 55.3681 23.5522 53.8333V17C23.5522 15.4653 24.054 14.1962 25.0575 13.1927C26.0609 12.1892 27.33 11.6875 28.8647 11.6875H65.6981C67.2328 11.6875 68.5019 12.1892 69.5054 13.1927C70.5088 14.1962 71.0106 15.4653 71.0106 17V53.8333C71.0106 55.3681 70.5088 56.6372 69.5054 57.6406C68.5019 58.6441 67.2328 59.1458 65.6981 59.1458H28.8647ZM19.3022 68.7083C17.7675 68.7083 16.4984 68.2066 15.495 67.2031C14.4915 66.1997 13.9897 64.9306 13.9897 63.3958V24.0833H16.4689V63.3958C16.4689 64.1042 16.7641 64.7535 17.3543 65.3438C17.9446 65.934 18.5939 66.2292 19.3022 66.2292H58.6147V68.7083H19.3022Z" fill="#101763"/>
</g>
</svg>
