<svg width="46" height="46" viewBox="0 0 46 46" fill="none" xmlns="http://www.w3.org/2000/svg">
<mask id="mask0_1574_864" style="mask-type:alpha" maskUnits="userSpaceOnUse" x="0" y="0" width="46" height="46">
<rect width="46" height="46" fill="#D9D9D9"/>
</mask>
<g mask="url(#mask0_1574_864)">
<path d="M12.2003 32.952C11.0331 32.952 10.041 32.5434 9.22396 31.7264C8.40692 30.9093 7.99839 29.9172 7.99839 28.75H4.3125V13.4167C4.3125 12.8896 4.50017 12.4384 4.87552 12.063C5.25087 11.6877 5.70208 11.5 6.22917 11.5H31.2933L41.6875 21.3045V28.75H38.5914C38.5914 29.9172 38.1828 30.9093 37.3658 31.7264C36.5488 32.5434 35.5566 32.952 34.3894 32.952C33.2222 32.952 32.2301 32.5434 31.4131 31.7264C30.596 30.9093 30.1875 29.9172 30.1875 28.75H16.4023C16.4023 29.9049 15.9937 30.894 15.1767 31.7171C14.3597 32.5404 13.3675 32.952 12.2003 32.952ZM27.3125 20.2724H37.7804L30.4824 13.4167H27.3125V20.2724ZM16.7708 20.2724H25.3958V13.4167H16.7708V20.2724ZM6.22917 20.2724H14.8542V13.4167H6.22917V20.2724ZM12.2003 31.1458C12.8711 31.1458 13.4381 30.9142 13.9013 30.451C14.3645 29.9878 14.5961 29.4208 14.5961 28.75C14.5961 28.0792 14.3645 27.5122 13.9013 27.049C13.4381 26.5858 12.8711 26.3542 12.2003 26.3542C11.5295 26.3542 10.9625 26.5858 10.4993 27.049C10.0361 27.5122 9.80447 28.0792 9.80447 28.75C9.80447 29.4208 10.0361 29.9878 10.4993 30.451C10.9625 30.9142 11.5295 31.1458 12.2003 31.1458ZM34.3894 31.1458C35.0602 31.1458 35.6273 30.9142 36.0905 30.451C36.5536 29.9878 36.7852 29.4208 36.7852 28.75C36.7852 28.0792 36.5536 27.5122 36.0905 27.049C35.6273 26.5858 35.0602 26.3542 34.3894 26.3542C33.7186 26.3542 33.1516 26.5858 32.6884 27.049C32.2252 27.5122 31.9936 28.0792 31.9936 28.75C31.9936 29.4208 32.2252 29.9878 32.6884 30.451C33.1516 30.9142 33.7186 31.1458 34.3894 31.1458ZM6.22917 26.8333H8.49965C8.77242 26.2583 9.24177 25.7337 9.90768 25.2595C10.5736 24.7852 11.3378 24.5481 12.2003 24.5481C13.0628 24.5481 13.8086 24.7668 14.4377 25.2042C15.0667 25.6416 15.5545 26.1846 15.901 26.8333H30.6888C30.9615 26.2583 31.4309 25.7337 32.0968 25.2595C32.7627 24.7852 33.5269 24.5481 34.3894 24.5481C35.2519 24.5481 35.9977 24.7668 36.6268 25.2042C37.2558 25.6416 37.7436 26.1846 38.0901 26.8333H39.7708V22.1891H6.22917V26.8333Z" fill="#FF0C15"/>
</g>
</svg>
