<svg width="85" height="85" viewBox="0 0 85 85" fill="none" xmlns="http://www.w3.org/2000/svg">
<mask id="mask0_1580_3175" style="mask-type:alpha" maskUnits="userSpaceOnUse" x="0" y="0" width="85" height="85">
<rect width="85" height="85" fill="#D9D9D9"/>
</mask>
<g mask="url(#mask0_1580_3175)">
<path d="M30.6356 39.3122V36.833H54.3647V39.3122H30.6356ZM34.1772 49.9372V47.458H50.8231V49.9372H34.1772ZM13.4585 66.2288C11.9828 66.2288 10.7285 65.7124 9.69548 64.6794C8.66249 63.6464 8.146 62.392 8.146 60.9163V24.083C8.146 22.6073 8.66249 21.353 9.69548 20.32C10.7285 19.287 11.9828 18.7705 13.4585 18.7705H71.5418C73.0175 18.7705 74.2719 19.287 75.3048 20.32C76.3378 21.353 76.8543 22.6073 76.8543 24.083V60.9163C76.8543 62.392 76.3378 63.6464 75.3048 64.6794C74.2719 65.7124 73.0175 66.2288 71.5418 66.2288H13.4585ZM16.4689 21.2497H13.4585C12.6321 21.2497 11.9533 21.5153 11.422 22.0465C10.8908 22.5778 10.6252 23.2566 10.6252 24.083V60.9163C10.6252 61.7427 10.8908 62.4216 11.422 62.9528C11.9533 63.4841 12.6321 63.7497 13.4585 63.7497H16.4689V21.2497ZM18.9481 63.7497H66.0522V21.2497H18.9481V63.7497ZM68.5314 21.2497V63.7497H71.5418C72.3682 63.7497 73.047 63.4841 73.5783 62.9528C74.1095 62.4216 74.3752 61.7427 74.3752 60.9163V24.083C74.3752 23.2566 74.1095 22.5778 73.5783 22.0465C73.047 21.5153 72.3682 21.2497 71.5418 21.2497H68.5314Z" fill="#101763"/>
</g>
</svg>
