<svg width="85" height="85" viewBox="0 0 85 85" fill="none" xmlns="http://www.w3.org/2000/svg">
<mask id="mask0_1580_3190" style="mask-type:alpha" maskUnits="userSpaceOnUse" x="0" y="0" width="85" height="85">
<rect width="85" height="85" fill="#D9D9D9"/>
</mask>
<g mask="url(#mask0_1580_3190)">
<path d="M23.5521 57.9059H61.4479V51.8851H23.5521V57.9059ZM17 66.2288C15.4653 66.2288 14.1962 65.7271 13.1927 64.7236C12.1892 63.7202 11.6875 62.4511 11.6875 60.9163V24.083C11.6875 22.5483 12.1892 21.2792 13.1927 20.2757C14.1962 19.2722 15.4653 18.7705 17 18.7705H68C69.5347 18.7705 70.8038 19.2722 71.8073 20.2757C72.8108 21.2792 73.3125 22.5483 73.3125 24.083V60.9163C73.3125 62.4511 72.8108 63.7202 71.8073 64.7236C70.8038 65.7271 69.5347 66.2288 68 66.2288H17ZM17 63.7497H68C68.7083 63.7497 69.3576 63.4545 69.9479 62.8643C70.5382 62.274 70.8333 61.6247 70.8333 60.9163V24.083C70.8333 23.3747 70.5382 22.7254 69.9479 22.1351C69.3576 21.5448 68.7083 21.2497 68 21.2497H17C16.2917 21.2497 15.6424 21.5448 15.0521 22.1351C14.4618 22.7254 14.1667 23.3747 14.1667 24.083V60.9163C14.1667 61.6247 14.4618 62.274 15.0521 62.8643C15.6424 63.4545 16.2917 63.7497 17 63.7497Z" fill="#101763"/>
</g>
</svg>
