<svg width="46" height="46" viewBox="0 0 46 46" fill="none" xmlns="http://www.w3.org/2000/svg">
<mask id="mask0_1574_870" style="mask-type:alpha" maskUnits="userSpaceOnUse" x="0" y="0" width="46" height="46">
<rect width="46" height="46" fill="#D9D9D9"/>
</mask>
<g mask="url(#mask0_1574_870)">
<path d="M28.1971 22.2478L34.9792 18.3554L28.1971 14.4631L21.4151 18.3554L28.1971 22.2478ZM28.1971 27.725L33.1731 24.8795V21.5179L28.1971 24.4372L23.2211 21.5179V24.8795L28.1971 27.725ZM37.1539 36.4163H27.718C27.718 36.0969 27.7094 35.7775 27.6921 35.458C27.675 35.1386 27.6492 34.8191 27.6148 34.4997H37.1539C37.4979 34.4997 37.7805 34.3891 38.0016 34.168C38.2228 33.9468 38.3333 33.6642 38.3333 33.3202V12.6791C38.3333 12.3351 38.2228 12.0526 38.0016 11.8314C37.7805 11.6102 37.4979 11.4997 37.1539 11.4997H8.84614C8.50213 11.4997 8.21955 11.6102 7.99839 11.8314C7.77724 12.0526 7.66667 12.3351 7.66667 12.6791V14.5516C7.34722 14.5172 7.02778 14.4914 6.70833 14.4742C6.38889 14.457 6.06944 14.4484 5.75 14.4484V12.6791C5.75 11.8277 6.05317 11.0988 6.65951 10.4925C7.26581 9.88618 7.99469 9.58301 8.84614 9.58301H37.1539C38.0053 9.58301 38.7342 9.88618 39.3405 10.4925C39.9468 11.0988 40.25 11.8277 40.25 12.6791V33.3202C40.25 34.1717 39.9468 34.9005 39.3405 35.5068C38.7342 36.1132 38.0053 36.4163 37.1539 36.4163ZM5.75 36.4163V32.7304C6.75746 32.7304 7.62365 33.0929 8.34857 33.8178C9.07345 34.5427 9.43589 35.4089 9.43589 36.4163H5.75ZM14.0064 36.4163C14.0064 34.1336 13.201 32.1991 11.5903 30.6129C9.97954 29.0267 8.03278 28.2091 5.75 28.1599V26.2432C8.5783 26.2432 10.9809 27.2303 12.9578 29.2044C14.9347 31.1784 15.9231 33.5824 15.9231 36.4163H14.0064ZM21.2308 36.4163C21.2308 34.271 20.8247 32.2616 20.0126 30.3879C19.2005 28.5144 18.0935 26.8766 16.6916 25.4748C15.2897 24.0729 13.652 22.9659 11.7784 22.1538C9.90479 21.3416 7.89532 20.9356 5.75 20.9356V19.0189C8.16548 19.0189 10.4257 19.4728 12.5306 20.3806C14.6356 21.2883 16.4774 22.5315 18.0561 24.1102C19.6348 25.6889 20.8781 27.5308 21.7858 29.6357C22.6936 31.7407 23.1474 34.0009 23.1474 36.4163H21.2308Z" fill="#FF0C15"/>
</g>
</svg>
