<svg fill="none" height="264" viewBox="0 0 1094 264" width="1094" xmlns="http://www.w3.org/2000/svg"><path d="m126.879 263.479c-22.506 0-41.8293-3.978-57.97-11.935s-29.326-18.3-39.556-31.031c-10.0027-12.731-17.391-26.598-22.165-41.602s-7.1609993-29.44-7.1609993-43.307v-7.502c0-15.459 2.3869993-30.69 7.1609993-45.694 5.0013-15.004 12.617-28.644 22.847-40.92s23.188-22.0514 38.874-29.326c15.9133-7.50202 34.668-11.253016 56.265-11.253016 22.506 0 42.057 4.092006 58.652 12.276016 16.823 7.9567 30.235 19.3233 40.238 34.1 10.003 14.5493 16.027 31.5993 18.073 51.15h-48.763c-1.819-11.3667-5.911-20.9147-12.276-28.644-6.138-7.9567-13.981-13.8673-23.529-17.732-9.548-4.092-20.346-6.138-32.395-6.138-12.276 0-23.188 2.1597-32.736 6.479-9.548 4.092-17.5047 10.0027-23.87 17.732s-11.253 16.8227-14.663 27.28c-3.1827 10.457-4.774 22.051-4.774 34.782 0 12.276 1.5913 23.643 4.774 34.1 3.41 10.457 8.4113 19.664 15.004 27.621 6.5927 7.729 14.663 13.754 24.211 18.073 9.775 4.319 21.028 6.479 33.759 6.479 18.641 0 34.327-4.547 47.058-13.64 12.958-9.321 20.801-22.279 23.529-38.874h48.763c-2.273 17.732-8.298 33.986-18.073 48.763s-23.188 26.598-40.238 35.464-37.396 13.299-61.039 13.299zm142.82-6.479v-248.93001h47.399v145.26601h-8.184c0-18.641 2.387-34.441 7.161-47.399s11.822-22.847 21.142-29.667c9.548-6.82 21.597-10.23 36.146-10.23h2.046c21.142 0 37.169 7.2747 48.081 21.824 10.912 14.549 16.368 35.691 16.368 63.426v105.71h-47.399v-110.143c0-11.821-3.41-21.142-10.23-27.962-6.592-6.82-15.345-10.23-26.257-10.23-11.594 0-21.028 3.865-28.303 11.594-7.047 7.502-10.571 17.391-10.571 29.667v107.074zm290.341 6.479c-15.914 0-29.895-2.728-41.943-8.184-11.822-5.456-21.711-12.731-29.667-21.824-7.73-9.321-13.64-19.664-17.732-31.031-3.865-11.367-5.797-22.961-5.797-34.782v-6.479c0-12.276 1.932-24.097 5.797-35.464 4.092-11.594 10.002-21.824 17.732-30.69 7.956-9.0933 17.732-16.2543 29.326-21.483 11.594-5.456 25.006-8.184 40.238-8.184 20.005 0 36.714 4.433 50.127 13.299 13.64 8.6387 23.87 20.119 30.69 34.441 6.82 14.095 10.23 29.326 10.23 45.694v17.05h-164.021v-28.985h134.354l-14.663 14.322c0-11.821-1.705-21.938-5.115-30.349s-8.639-14.89-15.686-19.437c-6.82-4.547-15.459-6.82-25.916-6.82-10.458 0-19.324 2.387-26.598 7.161-7.275 4.774-12.845 11.708-16.709 20.801-3.638 8.866-5.456 19.551-5.456 32.054 0 11.594 1.818 21.938 5.456 31.031 3.637 8.866 9.207 15.913 16.709 21.142 7.502 5.001 17.05 7.502 28.644 7.502s21.028-2.273 28.303-6.82c7.274-4.774 11.935-10.571 13.981-17.391h43.648c-2.728 12.731-7.957 23.87-15.686 33.418-7.73 9.548-17.619 16.936-29.667 22.165-11.822 5.229-25.348 7.843-40.579 7.843zm150.461-6.479-57.97-185.163h48.763l55.583 185.163zm13.981 0v-38.874h50.127v38.874zm18.755 0 47.74-185.163h45.694l-50.127 185.163zm225.451 0v-54.901h-7.843v-61.039c0-10.685-2.614-18.641-7.843-23.87s-13.299-7.843-24.211-7.843c-5.683 0-12.503.114-20.46.341s-16.027.568-24.211 1.023c-7.957.227-15.118.568-21.483 1.023v-40.238c5.229-.4547 11.139-.9093 17.732-1.364s13.299-.682 20.119-.682c7.047-.2273 13.64-.341 19.778-.341 19.096 0 34.896 2.5007 47.399 7.502 12.731 5.0013 22.279 12.8443 28.644 23.529 6.591 10.685 9.891 24.666 9.891 41.943v114.917zm-59.675 4.774c-13.413 0-25.234-2.387-35.464-7.161-10.003-4.774-17.846-11.594-23.529-20.46-5.456-8.866-8.184-19.551-8.184-32.054 0-13.64 3.296-24.779 9.889-33.418 6.82-8.639 16.254-15.118 28.303-19.437 12.276-4.319 26.598-6.479 42.966-6.479h42.966v28.303h-43.648c-10.912 0-19.323 2.728-25.234 8.184-5.683 5.229-8.525 12.049-8.525 20.46s2.842 15.231 8.525 20.46c5.911 5.229 14.322 7.843 25.234 7.843 6.593 0 12.617-1.137 18.073-3.41 5.683-2.501 10.344-6.593 13.981-12.276 3.865-5.911 6.024-13.867 6.479-23.87l11.594 13.299c-1.137 12.958-4.319 23.87-9.548 32.736-5.001 8.866-12.049 15.686-21.142 20.46-8.866 4.547-19.778 6.82-32.736 6.82zm136.707-4.774v-248.93001h47.4v248.93001zm-23.19-213.466v-35.46401h70.59v35.46401z" fill="#dbdbdb"/></svg>