<svg width="46" height="46" viewBox="0 0 46 46" fill="none" xmlns="http://www.w3.org/2000/svg">
<mask id="mask0_1574_867" style="mask-type:alpha" maskUnits="userSpaceOnUse" x="0" y="0" width="46" height="46">
<rect width="46" height="46" fill="#D9D9D9"/>
</mask>
<g mask="url(#mask0_1574_867)">
<path d="M8.84614 7.66699L11.7211 13.417H17.4711L14.5961 7.66699H18.4295L21.3045 13.417H27.0545L24.1795 7.66699H28.0128L30.8878 13.417H36.6378L33.7628 7.66699H37.1539C38.036 7.66699 38.7726 7.96248 39.3635 8.55345C39.9545 9.14442 40.25 9.88098 40.25 10.7631V35.2375C40.25 36.1197 39.9545 36.8562 39.3635 37.4472C38.7726 38.0382 38.036 38.3337 37.1539 38.3337H8.84614C7.96399 38.3337 7.22743 38.0382 6.63646 37.4472C6.04549 36.8562 5.75 36.1197 5.75 35.2375V10.7631C5.75 9.88098 6.04549 9.14442 6.63646 8.55345C7.22743 7.96248 7.96399 7.66699 8.84614 7.66699ZM7.66667 15.3337V35.2375C7.66667 35.5815 7.77724 35.8641 7.99839 36.0853C8.21955 36.3064 8.50213 36.417 8.84614 36.417H37.1539C37.4979 36.417 37.7805 36.3064 38.0016 36.0853C38.2228 35.8641 38.3333 35.5815 38.3333 35.2375V15.3337H7.66667ZM16.6602 32.8048H29.3398V32.4878C29.3398 31.4754 28.7414 30.6363 27.5447 29.9704C26.348 29.3044 24.8331 28.9715 23 28.9715C21.1669 28.9715 19.652 29.3044 18.4553 29.9704C17.2586 30.6363 16.6602 31.4754 16.6602 32.4878V32.8048ZM23 25.8753C23.8084 25.8753 24.4897 25.5983 25.0438 25.0442C25.5979 24.4901 25.875 23.8088 25.875 23.0003C25.875 22.1919 25.5979 21.5106 25.0438 20.9565C24.4897 20.4024 23.8084 20.1253 23 20.1253C22.1915 20.1253 21.5103 20.4024 20.9562 20.9565C20.4021 21.5106 20.125 22.1919 20.125 23.0003C20.125 23.8088 20.4021 24.4901 20.9562 25.0442C21.5103 25.5983 22.1915 25.8753 23 25.8753Z" fill="#FF0C15"/>
</g>
</svg>
