<svg width="46" height="46" viewBox="0 0 46 46" fill="none" xmlns="http://www.w3.org/2000/svg">
<mask id="mask0_1574_861" style="mask-type:alpha" maskUnits="userSpaceOnUse" x="0" y="0" width="46" height="46">
<rect width="46" height="46" fill="#D9D9D9"/>
</mask>
<g mask="url(#mask0_1574_861)">
<path d="M9.58333 36.4163C8.50214 36.4163 7.59295 36.0478 6.85577 35.3106C6.11859 34.5734 5.75 33.6642 5.75 32.583C5.75 31.5018 6.11859 30.5926 6.85577 29.8554C7.59295 29.1183 8.50214 28.7497 9.58333 28.7497H36.4167C37.4979 28.7497 38.407 29.1183 39.1442 29.8554C39.8814 30.5926 40.25 31.5018 40.25 32.583C40.25 33.6642 39.8814 34.5734 39.1442 35.3106C38.407 36.0478 37.4979 36.4163 36.4167 36.4163H9.58333ZM9.58333 34.4997H36.4167C36.9597 34.4997 37.4149 34.316 37.7823 33.9486C38.1497 33.5813 38.3333 33.1261 38.3333 32.583C38.3333 32.04 38.1497 31.5847 37.7823 31.2174C37.4149 30.85 36.9597 30.6663 36.4167 30.6663H9.58333C9.04028 30.6663 8.58507 30.85 8.21771 31.2174C7.85035 31.5847 7.66667 32.04 7.66667 32.583C7.66667 33.1261 7.85035 33.5813 8.21771 33.9486C8.58507 34.316 9.04028 34.4997 9.58333 34.4997ZM22.5422 24.9163C22.1078 24.9163 21.7437 24.7694 21.45 24.4755C21.1564 24.1816 21.0096 23.8174 21.0096 23.3829V11.1156C21.0096 10.6811 21.1566 10.3171 21.4505 10.0235C21.7444 9.72983 22.1085 9.58301 22.543 9.58301H34.8103C35.2448 9.58301 35.6088 9.72995 35.9025 10.0238C36.1961 10.3178 36.343 10.6819 36.343 11.1164V23.3837C36.343 23.8182 36.196 24.1822 35.9021 24.4759C35.6082 24.7695 35.244 24.9163 34.8095 24.9163H22.5422ZM22.9263 22.9997H34.4263V11.4997H22.9263V22.9997ZM5.75 22.0192V20.1357H17.1431V22.0192H5.75ZM24.8429 16.2913H32.5096V14.3857H24.8429V16.2913ZM9.58333 16.2913H17.1431V14.3857H9.58333V16.2913Z" fill="#FF0C15"/>
</g>
</svg>
