<svg width="85" height="85" viewBox="0 0 85 85" fill="none" xmlns="http://www.w3.org/2000/svg">
<mask id="mask0_1574_1045" style="mask-type:alpha" maskUnits="userSpaceOnUse" x="0" y="0" width="85" height="85">
<rect width="85" height="85" fill="#D9D9D9"/>
</mask>
<g mask="url(#mask0_1574_1045)">
<path d="M73.3125 24.084V60.9173C73.3125 62.452 72.8108 63.7211 71.8073 64.7246C70.8038 65.7281 69.5347 66.2298 68 66.2298H17C15.4653 66.2298 14.1962 65.7281 13.1927 64.7246C12.1892 63.7211 11.6875 62.452 11.6875 60.9173V24.084C11.6875 22.5493 12.1892 21.2802 13.1927 20.2767C14.1962 19.2732 15.4653 18.7715 17 18.7715H68C69.5347 18.7715 70.8038 19.2732 71.8073 20.2767C72.8108 21.2802 73.3125 22.5493 73.3125 24.084ZM14.1667 32.0527H70.8333V24.084C70.8333 23.3757 70.5382 22.7263 69.9479 22.1361C69.3576 21.5458 68.7083 21.2507 68 21.2507H17C16.2917 21.2507 15.6424 21.5458 15.0521 22.1361C14.4618 22.7263 14.1667 23.3757 14.1667 24.084V32.0527ZM14.1667 38.7819V60.9173C14.1667 61.6257 14.4618 62.275 15.0521 62.8652C15.6424 63.4555 16.2917 63.7507 17 63.7507H68C68.7083 63.7507 69.3576 63.4555 69.9479 62.8652C70.5382 62.275 70.8333 61.6257 70.8333 60.9173V38.7819H14.1667Z" fill="url(#paint0_linear_1574_1045)"/>
</g>
<defs>
<linearGradient id="paint0_linear_1574_1045" x1="42.5" y1="18.7715" x2="42.5" y2="66.2298" gradientUnits="userSpaceOnUse">
<stop stop-color="#1C1B1F"/>
<stop offset="1" stop-color="#FF0000"/>
</linearGradient>
</defs>
</svg>
