<svg width="85" height="85" viewBox="0 0 85 85" fill="none" xmlns="http://www.w3.org/2000/svg">
<mask id="mask0_1580_3181" style="mask-type:alpha" maskUnits="userSpaceOnUse" x="0" y="0" width="85" height="85">
<rect width="85" height="85" fill="#D9D9D9"/>
</mask>
<g mask="url(#mask0_1580_3181)">
<path d="M2.30225 79.1562V11.1562C2.30225 9.68056 2.81874 8.42622 3.85173 7.39323C4.88471 6.36024 6.13905 5.84375 7.61475 5.84375H31.3439C32.8196 5.84375 34.0739 6.36024 35.1069 7.39323C36.1399 8.42622 36.6564 9.68056 36.6564 11.1562V79.1562H34.1772V72.0729H4.78141V79.1562H2.30225ZM55.4272 79.1562V59.5L63.0418 52.0625L59.5887 36.2135C57.3457 40.0503 54.955 42.7509 52.4168 44.3151C49.8786 45.8793 47.0453 46.809 43.9168 47.1042V44.625C47.1043 44.2708 49.5835 43.5035 51.3543 42.3229C53.1252 41.1424 54.7484 39.342 56.2241 36.9219L59.6772 31.3438C60.5036 29.9861 61.5661 29.204 62.8647 28.9974C64.1634 28.7908 65.5505 29.0122 67.0262 29.6615L82.6981 36.125V49.0521H80.2189V37.8073L68.5314 32.9375L78.4481 79.1562H75.9689L69.0627 52.2396L57.9064 62.9531V79.1562H55.4272ZM4.78141 69.5937H34.1772V11.1562C34.1772 10.3299 33.9116 9.65104 33.3804 9.11979C32.8491 8.58854 32.1703 8.32292 31.3439 8.32292H7.61475C6.78836 8.32292 6.10954 8.58854 5.57829 9.11979C5.04704 9.65104 4.78141 10.3299 4.78141 11.1562V69.5937ZM14.6981 45.1562L25.5002 38.9583L14.6981 32.7604V45.1562ZM60.2085 23.375C58.6147 23.375 57.2719 22.829 56.1799 21.737C55.0878 20.645 54.5418 19.3021 54.5418 17.7083C54.5418 16.1146 55.0878 14.7717 56.1799 13.6797C57.2719 12.5877 58.6147 12.0417 60.2085 12.0417C61.8022 12.0417 63.1451 12.5877 64.2371 13.6797C65.3292 14.7717 65.8752 16.1146 65.8752 17.7083C65.8752 19.3021 65.3292 20.645 64.2371 21.737C63.1451 22.829 61.8022 23.375 60.2085 23.375Z" fill="#101763"/>
</g>
</svg>
