<svg width="139" height="139" viewBox="0 0 139 139" fill="none" xmlns="http://www.w3.org/2000/svg">
<path d="M72.8731 5.87005L70.25 0L71.2737 0.0639787L73.5769 5.31023L73.177 5.1183L74.6006 5.21427L74.1687 5.35822L76.9998 0.447851L77.9594 0.51183L74.7605 5.99801L72.8731 5.87005ZM73.0971 9.54883L73.353 5.67811L74.3127 5.74209L74.0567 9.6128L73.0971 9.54883Z" fill="#ffffff"/>
<path d="M80.7734 10.4606L82.8847 1.35962L83.8284 1.58354L81.7171 10.6845L80.7734 10.4606ZM81.4932 10.6205L81.6851 9.75683L86.2276 10.8125L86.0357 11.6762L81.4932 10.6205ZM82.4689 6.41394L82.6608 5.56622L86.7874 6.5259L86.5955 7.37362L82.4689 6.41394ZM83.3966 2.38328L83.5885 1.51957L88.003 2.54323L87.8111 3.40694L83.3966 2.38328Z" fill="#ffffff"/>
<path d="M88.8672 12.4598L95.6809 5.19824L97.2804 5.87002L96.9125 15.8667L96.0008 15.4828L96.3527 6.15792L96.7366 6.60577L95.505 6.07795L96.1128 6.04596L89.7789 12.8437L88.8832 12.4598H88.8672ZM91.7142 10.4445L92.354 9.75673L96.3527 11.4522L96.3207 12.3958L91.7302 10.4445H91.7142Z" fill="#ffffff"/>
<path d="M100 17.6582L105.15 9.8208L105.966 10.3486L100.816 18.186L100 17.6582ZM102.431 15.0191L102.911 14.2993L105.006 15.6749C105.39 15.9308 105.758 16.0587 106.11 16.0747C106.462 16.0907 106.798 16.0107 107.086 15.8508C107.39 15.6749 107.645 15.4349 107.853 15.099C108.061 14.7792 108.189 14.4433 108.237 14.0914C108.285 13.7555 108.221 13.4196 108.061 13.0997C107.901 12.7798 107.629 12.4919 107.246 12.236L105.15 10.8605L105.614 10.1407L107.565 11.4203C108.141 11.8041 108.573 12.22 108.861 12.6519C109.149 13.0997 109.277 13.5636 109.261 14.0594C109.245 14.5552 109.069 15.0511 108.733 15.5629L108.637 15.7068C108.301 16.2187 107.917 16.5706 107.47 16.7785C107.022 16.9864 106.542 17.0504 106.03 16.9704C105.518 16.8905 104.958 16.6665 104.383 16.2827L102.431 15.0031V15.0191ZM104.846 20.8411L104.447 15.6429L105.406 16.2667L105.838 21.4969L104.846 20.8411Z" fill="#ffffff"/>
<path d="M110.429 25.8474C109.853 25.3036 109.453 24.7598 109.245 24.216C109.037 23.6722 108.973 23.1283 109.069 22.6165C109.181 22.1047 109.421 21.6408 109.805 21.225L110.509 21.8967C110.269 22.1527 110.093 22.4566 110.013 22.8084C109.933 23.1603 109.965 23.5282 110.109 23.9441C110.269 24.3439 110.573 24.7758 111.036 25.2076C111.468 25.6075 111.884 25.8794 112.284 26.0234C112.684 26.1673 113.052 26.1993 113.388 26.1193C113.723 26.0394 114.011 25.8634 114.267 25.6075C114.571 25.2716 114.699 24.8877 114.651 24.4239C114.603 23.9601 114.331 23.4642 113.867 22.9364L113.148 22.1207C112.604 21.5289 112.316 20.9051 112.268 20.2653C112.22 19.6255 112.428 19.0497 112.924 18.5379C113.292 18.138 113.707 17.8821 114.171 17.7701C114.635 17.6422 115.131 17.6582 115.627 17.8021C116.139 17.9461 116.635 18.25 117.114 18.7138C117.61 19.1776 117.946 19.6575 118.122 20.1693C118.314 20.6811 118.346 21.177 118.25 21.6568C118.138 22.1367 117.898 22.5845 117.514 23.0004L116.81 22.3286C117.05 22.0727 117.21 21.8008 117.306 21.4649C117.402 21.145 117.386 20.7931 117.274 20.4412C117.162 20.0733 116.906 19.7215 116.523 19.3536C116.155 19.0017 115.787 18.7938 115.435 18.6818C115.083 18.5858 114.747 18.5858 114.443 18.6818C114.139 18.7778 113.867 18.9537 113.643 19.1936C113.356 19.4975 113.228 19.8654 113.244 20.2813C113.26 20.6971 113.468 21.113 113.851 21.5289L114.571 22.3446C115.003 22.8084 115.291 23.2883 115.467 23.7521C115.643 24.216 115.691 24.6798 115.611 25.0957C115.531 25.5275 115.339 25.9114 115.003 26.2633C114.635 26.6632 114.187 26.9191 113.675 27.031C113.164 27.143 112.636 27.095 112.076 26.9031C111.516 26.7111 110.972 26.3593 110.445 25.8634L110.429 25.8474Z" fill="#ffffff"/>
<path d="M120.744 38.5633C120.328 37.8755 120.088 37.1877 120.024 36.532C119.96 35.8762 120.024 35.2524 120.232 34.6606C120.44 34.0848 120.728 33.557 121.111 33.0931C121.495 32.6293 121.911 32.2614 122.375 31.9895L122.567 31.8775C123.063 31.5736 123.591 31.3657 124.182 31.2537C124.774 31.1258 125.366 31.1258 125.974 31.2217C126.582 31.3177 127.157 31.5576 127.701 31.9255C128.245 32.2934 128.725 32.8052 129.125 33.477C129.541 34.1488 129.781 34.8205 129.844 35.4763C129.908 36.1321 129.844 36.7399 129.669 37.3317C129.493 37.9235 129.205 38.4353 128.821 38.8992C128.437 39.363 128.005 39.7469 127.509 40.0348L127.301 40.1628C126.837 40.4347 126.326 40.6426 125.75 40.7706C125.174 40.8985 124.582 40.9145 123.958 40.8185C123.351 40.7226 122.759 40.4986 122.199 40.1468C121.639 39.7789 121.159 39.2511 120.728 38.5633H120.744ZM121.511 38.0994C121.815 38.6113 122.183 39.0111 122.615 39.299C123.047 39.5869 123.511 39.7789 123.99 39.8589C124.486 39.9388 124.982 39.9228 125.478 39.8269C125.974 39.7309 126.438 39.539 126.885 39.2671C127.349 38.9791 127.749 38.6433 128.069 38.2594C128.389 37.8755 128.629 37.4277 128.773 36.9638C128.917 36.484 128.965 36.0041 128.901 35.4923C128.837 34.9805 128.661 34.4686 128.357 33.9728C128.053 33.477 127.685 33.0771 127.269 32.7892C126.837 32.5013 126.39 32.3094 125.894 32.2134C125.414 32.1174 124.918 32.1334 124.406 32.2134C123.894 32.2934 123.431 32.5013 122.951 32.7892C122.503 33.0611 122.119 33.397 121.799 33.7809C121.479 34.1647 121.239 34.6126 121.079 35.0764C120.919 35.5403 120.871 36.0521 120.935 36.564C120.999 37.0758 121.175 37.5876 121.479 38.0994H121.511Z" fill="#ffffff"/>
<path d="M124.902 46.1448L133.635 42.8179L133.987 43.7296L125.254 47.0565L124.902 46.1448ZM129.189 45.2811L130.021 44.9612L131.508 48.8159L130.676 49.1358L129.189 45.2811ZM133.076 43.7935L133.891 43.4896L135.443 47.5843L134.627 47.8882L133.076 43.7935Z" fill="#ffffff"/>
<path d="M128.758 59.2924L138.019 58.0928L138.147 59.0525L128.886 60.2521L128.758 59.2924ZM128.854 60.0281L129.733 59.9162L130.341 64.5546L129.462 64.6666L128.854 60.0281ZM133.124 59.4683L133.988 59.3564L134.532 63.563L133.668 63.6749L133.124 59.4683ZM137.235 58.9405L138.115 58.8285L138.707 63.323L137.827 63.435L137.235 58.9405Z" fill="#ffffff"/>
<path d="M129.67 67.4015L134.533 71.1123H134.293L138.995 68.0413L138.963 69.1449L135.061 71.6561V71.832L138.771 74.6311L138.739 75.6867L134.197 72.2159H134.437L129.398 75.5908L129.43 74.4871L133.653 71.6881V71.5121L129.622 68.4411L129.654 67.3855L129.67 67.4015Z" fill="#ffffff"/>
<path d="M128.87 79.0457L138.067 80.917L137.875 81.8767L128.678 80.0053L128.87 79.0457ZM132.069 80.4372L132.916 80.6131L132.484 82.7404C132.389 83.2363 132.389 83.6521 132.516 84.004C132.644 84.3559 132.852 84.6278 133.124 84.8517C133.412 85.0597 133.732 85.2196 134.132 85.2836C134.532 85.3636 134.9 85.3636 135.236 85.2836C135.587 85.2036 135.875 85.0117 136.115 84.7398C136.355 84.4679 136.531 84.084 136.643 83.5881L137.075 81.4609L137.923 81.6368L137.523 83.6041C137.379 84.3399 137.123 84.9157 136.787 85.3476C136.451 85.7794 136.035 86.0673 135.571 86.2273C135.108 86.3872 134.58 86.4032 134.036 86.2912L133.86 86.2593C133.316 86.1473 132.852 85.9234 132.468 85.6035C132.085 85.2836 131.829 84.8517 131.685 84.3239C131.541 83.7961 131.541 83.1563 131.685 82.4205L132.085 80.4532L132.069 80.4372Z" fill="#ffffff"/>
<path d="M126.296 89.2183L127.128 89.5382L125.48 93.9047L124.648 93.5848L126.296 89.2183ZM126.552 88.5305L135.285 91.8414L134.933 92.7531L126.2 89.4422L126.536 88.5305H126.552ZM130.327 90.7538L131.142 91.0577L129.639 95.0244L128.823 94.7205L130.327 90.7538ZM134.197 92.2253L135.029 92.5452L133.43 96.7838L132.598 96.4639L134.197 92.2253Z" fill="#ffffff"/>
<path d="M119.992 102.19L125.174 101.518L124.599 102.494L119.4 103.214L119.992 102.19ZM122.919 97.1836L131.029 101.902L130.533 102.734L122.423 98.0153L122.919 97.1836ZM125.686 99.4708L126.438 99.9027L125.174 102.062C124.935 102.462 124.823 102.83 124.823 103.198C124.823 103.565 124.919 103.869 125.11 104.157C125.302 104.445 125.558 104.685 125.894 104.877C126.23 105.069 126.582 105.181 126.918 105.213C127.254 105.245 127.59 105.165 127.91 104.989C128.229 104.813 128.501 104.525 128.725 104.125L129.989 101.966L130.725 102.398L129.541 104.413C129.189 105.005 128.805 105.469 128.373 105.773C127.942 106.077 127.478 106.237 126.998 106.237C126.502 106.237 126.006 106.093 125.478 105.789L125.318 105.693C124.791 105.389 124.423 105.021 124.183 104.589C123.943 104.157 123.847 103.677 123.911 103.15C123.975 102.622 124.167 102.062 124.519 101.47L125.702 99.4388L125.686 99.4708Z" fill="#ffffff"/>
<path d="M117.194 106.029L124.551 111.771L123.959 112.539L116.586 106.797L117.178 106.029H117.194Z" fill="#ffffff"/>
<path d="M113.018 110.939L113.642 111.563L110.331 114.858L109.707 114.234L113.018 110.939ZM113.546 110.411L120.136 117.033L119.448 117.721L112.858 111.099L113.546 110.411ZM116.057 113.994L116.665 114.618L113.658 117.609L113.05 116.985L116.057 113.994ZM118.984 116.937L119.608 117.561L116.393 120.76L115.769 120.136L118.984 116.937Z" fill="#ffffff"/>
<path d="M106.733 116.825L112.027 124.519L110.684 125.446L101.679 121.384L101.343 121.624L101.439 121.304L106.349 128.437L105.581 128.965L100.287 121.272L101.631 120.344L110.636 124.407L110.972 124.167L110.876 124.487L105.965 117.353L106.717 116.825H106.733Z" fill="#ffffff"/>
<path d="M92.5603 124.758C93.3281 124.439 94.0479 124.295 94.7036 124.327C95.3594 124.359 95.9672 124.535 96.495 124.822C97.0229 125.11 97.4707 125.494 97.8546 125.942C98.2385 126.39 98.5264 126.854 98.7343 127.35L98.8303 127.574C99.0542 128.101 99.1981 128.661 99.2621 129.253C99.3261 129.845 99.2621 130.421 99.1182 130.996C98.9582 131.572 98.6543 132.084 98.2385 132.58C97.8226 133.076 97.2308 133.46 96.511 133.763C95.7753 134.083 95.0875 134.211 94.4317 134.195C93.7759 134.163 93.2001 133.987 92.6723 133.652C92.1445 133.316 91.7286 132.852 91.3767 132.244L92.2884 131.86C92.5604 132.34 92.9122 132.692 93.3281 132.932C93.744 133.156 94.1918 133.268 94.6716 133.268C95.1515 133.268 95.6473 133.156 96.1592 132.948C96.703 132.724 97.1348 132.42 97.4707 132.052C97.8066 131.684 98.0305 131.268 98.1585 130.82C98.2864 130.373 98.3344 129.877 98.2864 129.381C98.2385 128.885 98.1105 128.373 97.9026 127.877C97.6946 127.398 97.4387 126.966 97.1028 126.582C96.7829 126.198 96.3991 125.894 95.9672 125.67C95.5354 125.446 95.0715 125.318 94.5597 125.302C94.0479 125.286 93.52 125.398 92.9442 125.638C92.1605 125.974 91.5847 126.454 91.2168 127.078C90.8489 127.701 90.7689 128.405 90.9609 129.205L90.0492 129.589C89.8892 128.965 89.8572 128.341 89.9852 127.733C90.1132 127.126 90.3851 126.566 90.8169 126.054C91.2488 125.542 91.8406 125.126 92.6083 124.806L92.5603 124.758Z" fill="#ffffff"/>
<path d="M84.4999 127.717L84.6918 128.581L80.1333 129.621L79.9414 128.757L84.4999 127.717ZM85.4596 131.924L85.6515 132.772L81.5249 133.715L81.3329 132.868L85.4596 131.924ZM86.3873 135.971L86.5792 136.834L82.1647 137.842L81.9727 136.978L86.3873 135.971ZM85.2356 127.558L87.315 136.658L86.3713 136.866L84.292 127.765L85.2356 127.542V127.558Z" fill="#ffffff"/>
<path d="M64.1236 133.012L66.5708 138.962L65.5471 138.866L63.4038 133.556L63.7877 133.764L62.3802 133.62L62.812 133.492L59.821 138.306L58.8613 138.21L62.2202 132.836L64.1076 133.012H64.1236ZM64.0276 129.317L63.6437 133.172L62.6841 133.076L63.0679 129.221L64.0276 129.317Z" fill="#ffffff"/>
<path d="M53.5342 136.179L53.3103 137.026L48.9277 135.859L49.1517 135.011L53.5342 136.179ZM54.5899 132.164L54.3659 133.012L50.2713 131.924L50.4952 131.076L54.5899 132.164ZM55.6935 127.989L55.4696 128.837L50.9591 127.638L51.183 126.79L55.6935 127.989ZM56.4132 128.181L54.03 137.218L53.0863 136.962L55.4696 127.925L56.4132 128.181Z" fill="#ffffff"/>
<path d="M48.3848 125.926L41.3471 132.964L39.7637 132.228L40.4354 122.263L41.3471 122.679L40.7074 131.988L40.3395 131.524L41.5551 132.084H40.9473L47.4891 125.51L48.3688 125.91L48.3848 125.926ZM45.4738 127.846L44.818 128.517L40.8833 126.71L40.9473 125.766L45.4738 127.846Z" fill="#ffffff"/>
<path d="M34.9342 122.951L34.4383 123.671L32.391 122.231C32.0071 121.959 31.6553 121.816 31.2874 121.784C30.9355 121.752 30.5996 121.816 30.2957 121.975C29.9918 122.135 29.7359 122.375 29.496 122.695C29.2721 123.015 29.1281 123.351 29.0801 123.687C29.0321 124.023 29.0801 124.359 29.2241 124.679C29.368 124.998 29.6239 125.302 30.0078 125.558L32.0551 126.998L31.5593 127.702L29.6399 126.358C29.0801 125.958 28.6643 125.542 28.3923 125.078C28.1204 124.631 28.0085 124.151 28.0405 123.655C28.0725 123.159 28.2644 122.679 28.6163 122.183L28.7122 122.039C29.0641 121.544 29.464 121.192 29.9118 121C30.3597 120.808 30.8555 120.744 31.3674 120.84C31.8792 120.936 32.423 121.176 32.9828 121.576L34.9022 122.919L34.9342 122.951ZM37.4453 120.376L32.0551 128.053L31.2554 127.494L36.6456 119.816L37.4453 120.376ZM32.6949 117.049L32.9348 122.263L32.0071 121.608L31.7352 116.361L32.7109 117.049H32.6949Z" fill="#ffffff"/>
<path d="M27.2238 111.867C27.7837 112.427 28.1515 112.97 28.3595 113.53C28.5674 114.09 28.5994 114.618 28.4874 115.13C28.3755 115.642 28.1036 116.105 27.7037 116.489L27.0159 115.801C27.2718 115.546 27.4478 115.242 27.5437 114.906C27.6397 114.554 27.6237 114.186 27.4798 113.77C27.3358 113.354 27.0479 112.922 26.6001 112.475C26.1842 112.059 25.7843 111.771 25.3845 111.627C24.9846 111.467 24.6167 111.435 24.2808 111.499C23.9449 111.563 23.641 111.723 23.3851 111.979C23.0652 112.299 22.9213 112.699 22.9533 113.162C22.9853 113.626 23.2412 114.138 23.689 114.666L24.3768 115.498C24.8886 116.105 25.1765 116.745 25.2085 117.385C25.2405 118.025 25.0006 118.601 24.5048 119.096C24.1209 119.48 23.705 119.72 23.2252 119.832C22.7613 119.944 22.2655 119.912 21.7697 119.752C21.2738 119.592 20.778 119.272 20.3141 118.792C19.8343 118.313 19.5144 117.817 19.3385 117.305C19.1625 116.793 19.1465 116.297 19.2585 115.817C19.3705 115.338 19.6424 114.89 20.0422 114.49L20.73 115.178C20.4901 115.418 20.3141 115.706 20.2182 116.025C20.1222 116.345 20.1222 116.681 20.2182 117.049C20.3301 117.417 20.5701 117.785 20.9379 118.153C21.2898 118.505 21.6417 118.744 22.0096 118.856C22.3615 118.968 22.6974 118.984 23.0013 118.888C23.3052 118.808 23.5771 118.633 23.817 118.409C24.1049 118.105 24.2488 117.753 24.2488 117.337C24.2488 116.921 24.0569 116.505 23.689 116.073L23.0013 115.242C22.5854 114.762 22.3135 114.282 22.1535 113.802C21.9936 113.322 21.9616 112.874 22.0416 112.443C22.1215 112.011 22.3455 111.627 22.6814 111.291C23.0652 110.907 23.5131 110.667 24.0249 110.571C24.5367 110.475 25.0646 110.539 25.6084 110.747C26.1522 110.955 26.696 111.323 27.2079 111.835L27.2238 111.867Z" fill="#ffffff"/>
<path d="M17.3218 98.8152C17.7216 99.519 17.9456 100.207 17.9775 100.863C18.0255 101.518 17.9296 102.142 17.7056 102.718C17.4817 103.294 17.1778 103.806 16.7779 104.253C16.3781 104.701 15.9462 105.053 15.4824 105.325L15.2744 105.437C14.7786 105.725 14.2348 105.917 13.643 106.013C13.0512 106.109 12.4594 106.109 11.8516 105.981C11.2438 105.853 10.684 105.597 10.1561 105.213C9.62832 104.829 9.16448 104.301 8.78061 103.614C8.39673 102.926 8.17281 102.254 8.12482 101.598C8.07684 100.942 8.15681 100.335 8.36474 99.7589C8.57267 99.1831 8.87657 98.6712 9.26045 98.2234C9.64432 97.7755 10.1082 97.4077 10.604 97.1198L10.8119 97.0078C11.2758 96.7519 11.8036 96.5599 12.3794 96.448C12.9552 96.336 13.563 96.336 14.1708 96.448C14.7786 96.5599 15.3544 96.7999 15.8982 97.1837C16.4421 97.5676 16.9219 98.1114 17.3058 98.8152H17.3218ZM16.538 99.2471C16.2501 98.7192 15.8822 98.3194 15.4664 98.0155C15.0505 97.7116 14.5867 97.5196 14.1068 97.4237C13.611 97.3277 13.1152 97.3277 12.6193 97.4237C12.1235 97.5196 11.6437 97.6796 11.1958 97.9355C10.716 98.2074 10.3161 98.5273 9.98021 98.9112C9.64432 99.295 9.4044 99.7269 9.24445 100.191C9.08451 100.655 9.02053 101.15 9.06851 101.662C9.11649 102.174 9.27644 102.686 9.56435 103.198C9.85225 103.71 10.2041 104.109 10.62 104.413C11.0359 104.717 11.4837 104.925 11.9635 105.021C12.4434 105.133 12.9392 105.133 13.4351 105.053C13.9309 104.973 14.4267 104.797 14.9066 104.525C15.3544 104.269 15.7543 103.949 16.0902 103.566C16.4261 103.182 16.682 102.75 16.8419 102.286C17.0019 101.822 17.0818 101.326 17.0339 100.799C16.9859 100.287 16.8259 99.7589 16.538 99.2471Z" fill="#ffffff"/>
<path d="M5.16699 93.217L4.35126 93.5049L2.92773 89.3622L3.74346 89.0743L5.16699 93.217ZM13.4043 91.1376L4.57519 94.1926L4.25529 93.2809L13.0844 90.226L13.4043 91.1376ZM9.10168 91.8734L8.26996 92.1613L6.91041 88.2586L7.74213 87.9707L9.10168 91.8734Z" fill="#ffffff"/>
<path d="M1.48771 77.99L0.608007 78.0699L0.160156 73.5594L1.03986 73.4795L1.48771 77.99ZM9.98089 77.894L0.687981 78.8217L0.592013 77.862L9.88492 76.9343L9.98089 77.894ZM5.61434 77.5741L4.75063 77.6541L4.33477 73.4315L5.19848 73.3515L5.61434 77.5741ZM9.90092 77.1422L9.02121 77.2222L8.55736 72.5678L9.43707 72.4878L9.90092 77.1422Z" fill="#ffffff"/>
<path d="M9.29328 69.7368L4.54286 65.8821H4.78278L-0.015625 68.8092L0.0483537 67.7055L4.01504 65.3223V65.1464L0.400237 62.2353L0.464215 61.1797L4.89474 64.7785H4.65482L9.78912 61.5476L9.72514 62.6512L5.40657 65.3223V65.4983L9.32527 68.6812L9.26129 69.7208L9.29328 69.7368Z" fill="#ffffff"/>
<path d="M10.4611 58.1246L1.32812 55.9654L1.55205 55.0217L10.685 57.181L10.4611 58.1246ZM7.29414 56.6371L6.46242 56.4452L6.95825 54.3339C7.07022 53.8381 7.07022 53.4222 6.95825 53.0703C6.84629 52.7184 6.65435 52.4305 6.36645 52.2066C6.09454 51.9827 5.75865 51.8227 5.37478 51.7428C4.99091 51.6468 4.62303 51.6468 4.27115 51.7108C3.91926 51.7748 3.63136 51.9507 3.37544 52.2226C3.11953 52.4945 2.92759 52.8624 2.81563 53.3582L2.3198 55.4695L1.48807 55.2776L1.95192 53.3262C2.12786 52.5905 2.38377 52.0147 2.73566 51.5988C3.08754 51.183 3.5034 50.8951 3.98324 50.7671C4.46308 50.6391 4.97491 50.6231 5.51873 50.7671L5.69467 50.8151C6.23849 50.943 6.68634 51.183 7.05422 51.5188C7.4221 51.8547 7.67801 52.2866 7.80597 52.8304C7.93393 53.3582 7.91793 53.998 7.74199 54.7338L7.27815 56.6851L7.29414 56.6371Z" fill="#ffffff"/>
<path d="M13.084 48.7197L4.46289 45.1369L4.83077 44.2412L13.4519 47.824L13.084 48.7197ZM5.55053 44.785L4.7348 44.4492L6.47822 40.2585L7.29395 40.5944L5.56652 44.785H5.55053ZM9.37326 46.3685L8.57352 46.0326L10.189 42.1139L10.9887 42.4498L9.37326 46.3685ZM13.3559 48.016L12.5402 47.6801L14.3316 43.3615L15.1473 43.6974L13.3559 48.016Z" fill="#ffffff"/>
<path d="M16.9865 40.1945L9.03711 35.2202L9.54894 34.3884L17.4983 39.3628L16.9865 40.1945ZM14.2834 37.8273L13.5476 37.3634L14.8752 35.2362C15.1151 34.8523 15.243 34.4684 15.259 34.1165C15.275 33.7646 15.1791 33.4447 15.0031 33.1408C14.8272 32.8529 14.5713 32.597 14.2354 32.3891C13.8995 32.1812 13.5636 32.0532 13.2277 32.0212C12.8918 31.9892 12.5559 32.0532 12.236 32.2132C11.9162 32.3731 11.6282 32.645 11.3883 33.0449L10.0608 35.1722L9.34101 34.7243L10.5886 32.741C10.9565 32.1492 11.3563 31.7173 11.8042 31.4294C12.236 31.1415 12.7159 30.9976 13.1957 30.9976C13.6916 30.9976 14.1874 31.1735 14.6992 31.4934L14.8432 31.5894C15.355 31.9093 15.7229 32.2931 15.9468 32.725C16.1707 33.1728 16.2507 33.6527 16.1707 34.1645C16.1068 34.6923 15.8828 35.2362 15.515 35.828L14.2674 37.8113L14.2834 37.8273ZM20.0574 35.2841L14.8592 35.796L15.467 34.8363L20.6812 34.2765L20.0574 35.2841Z" fill="#ffffff"/>
<path d="M22.9863 31.5095L15.8047 25.5435L16.4285 24.7917L23.6101 30.7578L22.9863 31.5095Z" fill="#ffffff"/>
<path d="M26.7432 27.2709L20.3613 20.4412L21.0651 19.7694L27.447 26.5992L26.7432 27.2709ZM21.5129 20.5852L20.9051 19.9454L24.216 16.8584L24.8238 17.4982L21.5129 20.5852ZM24.344 23.6082L23.7522 22.9684L26.8392 20.0733L27.431 20.7131L24.344 23.6082ZM27.287 26.7591L26.6792 26.1193L30.0861 22.9364L30.6939 23.5762L27.287 26.7591Z" fill="#ffffff"/>
<path d="M33.7653 21.0809L28.7109 13.2275L30.0705 12.3478L38.9475 16.6983L39.2994 16.4744L39.1875 16.7783L34.501 9.48473L35.2847 8.9729L40.3391 16.8263L38.9635 17.706L30.0865 13.3554L29.7346 13.5794L29.8306 13.2755L34.517 20.5531L33.7493 21.0489L33.7653 21.0809Z" fill="#ffffff"/>
<path d="M48.1919 13.5634C47.4081 13.8673 46.6884 13.9952 46.0326 13.9312C45.3768 13.8673 44.785 13.6913 44.2732 13.3714C43.7614 13.0515 43.3135 12.6677 42.9456 12.2198C42.5778 11.756 42.3058 11.2921 42.1139 10.7963L42.0339 10.5724C41.826 10.0445 41.698 9.48472 41.6661 8.89291C41.6181 8.30111 41.698 7.7253 41.874 7.16549C42.0499 6.60567 42.3698 6.09384 42.8017 5.614C43.2335 5.13416 43.8253 4.76628 44.5771 4.47838C45.3288 4.19048 46.0166 4.06252 46.6724 4.1265C47.3122 4.17448 47.904 4.38241 48.3998 4.7183C48.9116 5.07018 49.3275 5.55002 49.6474 6.15782L48.7357 6.50971C48.4638 6.01387 48.1439 5.64599 47.728 5.40607C47.3282 5.16615 46.8803 5.03819 46.4005 5.0222C45.9206 5.0222 45.4248 5.10217 44.913 5.29411C44.3692 5.50204 43.9213 5.78994 43.5854 6.14183C43.2495 6.49371 42.9936 6.90957 42.8497 7.35742C42.7057 7.80527 42.6417 8.28511 42.6737 8.79694C42.7057 9.30877 42.8177 9.80461 43.0096 10.3164C43.2015 10.7963 43.4415 11.2441 43.7614 11.628C44.0653 12.0119 44.4491 12.3318 44.865 12.5717C45.2809 12.8116 45.7607 12.9556 46.2565 12.9876C46.7684 13.0195 47.3122 12.9236 47.872 12.7156C48.6717 12.4117 49.2635 11.9479 49.6474 11.3401C50.0313 10.7323 50.1432 10.0125 49.9833 9.21281L50.895 8.86092C51.0389 9.48472 51.0389 10.1085 50.895 10.7163C50.751 11.3241 50.4631 11.8679 50.0153 12.3638C49.5674 12.8596 48.9596 13.2595 48.1919 13.5474V13.5634Z" fill="#ffffff"/>
<path d="M55.598 11.0203L53.8066 1.85532L54.7663 1.66338L56.5577 10.8283L55.598 11.0203ZM54.7023 2.57508L54.5264 1.71137L58.9729 0.847656L59.1489 1.71137L54.7023 2.57508ZM55.5021 6.63773L55.3421 5.79001L59.5007 4.97428L59.6607 5.822L55.5021 6.63773ZM56.3338 10.8763L56.1579 10.0126L60.7483 9.11691L60.9243 9.98062L56.3338 10.8763Z" fill="#ffffff"/>
</svg>
