<svg width="46" height="46" viewBox="0 0 46 46" fill="none" xmlns="http://www.w3.org/2000/svg">
<mask id="mask0_1574_849" style="mask-type:alpha" maskUnits="userSpaceOnUse" x="0" y="0" width="46" height="46">
<rect width="46" height="46" fill="#D9D9D9"/>
</mask>
<g mask="url(#mask0_1574_849)">
<path d="M27.5664 27.5703C26.7162 25.838 25.3203 24.6923 23.3788 24.1333C21.4373 23.5742 19.4311 23.2947 17.3602 23.2947C15.301 23.2947 13.2854 23.5742 11.3134 24.1333C9.3415 24.6923 7.955 25.838 7.15393 27.5703H27.5664ZM4.68066 29.487C4.68066 26.6931 5.99898 24.6431 8.63561 23.3371C11.2723 22.031 14.1805 21.378 17.3602 21.378C20.5399 21.378 23.448 22.031 26.0847 23.3371C28.7213 24.6431 30.0396 26.6931 30.0396 29.487H4.68066ZM4.68066 35.8267V33.9101H30.0396V35.8267H4.68066ZM33.873 42.1665V40.2498H36.5563L39.2397 14.1537H21.9675L21.7095 12.237H30.5557V4.57031H32.4724V12.237H41.3185L38.4509 40.4194C38.3796 40.9477 38.1511 41.371 37.7653 41.6892C37.3795 42.0074 36.9225 42.1665 36.3942 42.1665H33.873ZM5.86013 42.1665C5.52596 42.1665 5.24584 42.0535 5.01977 41.8274C4.7937 41.6013 4.68066 41.3212 4.68066 40.987V40.2498H30.0396V40.987C30.0396 41.3212 29.9266 41.6013 29.7005 41.8274C29.4745 42.0535 29.1944 42.1665 28.8602 42.1665H5.86013Z" fill="#FF0C15"/>
</g>
</svg>
