<svg width="46" height="46" viewBox="0 0 46 46" fill="none" xmlns="http://www.w3.org/2000/svg">
<mask id="mask0_1574_873" style="mask-type:alpha" maskUnits="userSpaceOnUse" x="0" y="0" width="46" height="46">
<rect width="46" height="46" fill="#D9D9D9"/>
</mask>
<g mask="url(#mask0_1574_873)">
<path d="M10.9021 36.6375C9.50728 36.6375 8.32455 36.1502 7.35395 35.1754C6.38332 34.2007 5.89801 33.0171 5.89801 31.6247H3.24414V12.6791C3.24414 11.797 3.53963 11.0604 4.1306 10.4695C4.72157 9.87849 5.45815 9.58301 6.34032 9.58301H31.6993V16.5125H36.1224L42.757 25.4324V31.6247H39.6608C39.6608 33.0171 39.1726 34.2007 38.1962 35.1754C37.2198 36.1502 36.0342 36.6375 34.6393 36.6375C33.2445 36.6375 32.0617 36.1502 31.0911 35.1754C30.1205 34.2007 29.6352 33.0171 29.6352 31.6247H15.9237C15.9237 33.0253 15.4355 34.2109 14.459 35.1816C13.4827 36.1522 12.297 36.6375 10.9021 36.6375ZM10.9108 34.7208C11.7733 34.7208 12.505 34.4204 13.1058 33.8196C13.7066 33.2188 14.007 32.4872 14.007 31.6247C14.007 30.7622 13.7066 30.0305 13.1058 29.4298C12.505 28.8289 11.7733 28.5285 10.9108 28.5285C10.0483 28.5285 9.31667 28.8289 8.71589 29.4298C8.11508 30.0305 7.81467 30.7622 7.81467 31.6247C7.81467 32.4872 8.11508 33.2188 8.71589 33.8196C9.31667 34.4204 10.0483 34.7208 10.9108 34.7208ZM5.16081 29.708H6.39931C6.67205 28.8627 7.22739 28.1354 8.06532 27.526C8.90326 26.9166 9.85175 26.6119 10.9108 26.6119C11.9208 26.6119 12.857 26.9104 13.7195 27.5075C14.582 28.1046 15.1496 28.8381 15.4224 29.708H29.7826V11.4997H6.34032C6.04544 11.4997 5.77515 11.6225 5.52943 11.8683C5.28368 12.114 5.16081 12.3843 5.16081 12.6791V29.708ZM34.648 34.7208C35.5105 34.7208 36.2422 34.4204 36.843 33.8196C37.4438 33.2188 37.7441 32.4872 37.7441 31.6247C37.7441 30.7622 37.4438 30.0305 36.843 29.4298C36.2422 28.8289 35.5105 28.5285 34.648 28.5285C33.7855 28.5285 33.0539 28.8289 32.453 29.4298C31.8523 30.0305 31.5519 30.7622 31.5519 31.6247C31.5519 32.4872 31.8523 33.2188 32.453 33.8196C33.0539 34.4204 33.7855 34.7208 34.648 34.7208ZM31.6993 25.8747H40.7297L35.0903 18.4291H31.6993V25.8747Z" fill="#FF0C15"/>
</g>
</svg>
