<svg width="85" height="85" viewBox="0 0 85 85" fill="none" xmlns="http://www.w3.org/2000/svg">
<mask id="mask0_1580_3187" style="mask-type:alpha" maskUnits="userSpaceOnUse" x="0" y="0" width="85" height="85">
<rect width="85" height="85" fill="#D9D9D9"/>
</mask>
<g mask="url(#mask0_1580_3187)">
<path d="M20.5417 73.3125C19.0661 73.3125 17.8117 72.796 16.7787 71.763C15.7457 70.73 15.2292 69.4757 15.2292 68V31.1667C15.2292 29.691 15.7457 28.4366 16.7787 27.4036C17.8117 26.3707 19.0661 25.8542 20.5417 25.8542H29.3959C29.3959 22.1944 30.665 19.0955 33.2032 16.5573C35.7414 14.0191 38.8404 12.75 42.5001 12.75C46.1598 12.75 49.2588 14.0191 51.797 16.5573C54.3351 19.0955 55.6042 22.1944 55.6042 25.8542H64.4584C65.9341 25.8542 67.1884 26.3707 68.2214 27.4036C69.2544 28.4366 69.7709 29.691 69.7709 31.1667V68C69.7709 69.4757 69.2544 70.73 68.2214 71.763C67.1884 72.796 65.9341 73.3125 64.4584 73.3125H20.5417ZM20.5417 70.8333H64.4584C65.1667 70.8333 65.8161 70.5382 66.4063 69.9479C66.9966 69.3576 67.2917 68.7083 67.2917 68V31.1667C67.2917 30.4583 66.9966 29.809 66.4063 29.2188C65.8161 28.6285 65.1667 28.3333 64.4584 28.3333H20.5417C19.8334 28.3333 19.1841 28.6285 18.5938 29.2188C18.0036 29.809 17.7084 30.4583 17.7084 31.1667V68C17.7084 68.7083 18.0036 69.3576 18.5938 69.9479C19.1841 70.5382 19.8334 70.8333 20.5417 70.8333ZM42.5001 44.9792C46.1598 44.9792 49.2588 43.7101 51.797 41.1719C54.3351 38.6337 55.6042 35.5347 55.6042 31.875H53.1251C53.1251 34.8264 52.0921 37.3351 50.0261 39.401C47.9601 41.467 45.4515 42.5 42.5001 42.5C39.5487 42.5 37.04 41.467 34.974 39.401C32.9081 37.3351 31.8751 34.8264 31.8751 31.875H29.3959C29.3959 35.5347 30.665 38.6337 33.2032 41.1719C35.7414 43.7101 38.8404 44.9792 42.5001 44.9792ZM31.8751 25.8542H53.1251C53.1251 22.9028 52.0921 20.3941 50.0261 18.3281C47.9601 16.2622 45.4515 15.2292 42.5001 15.2292C39.5487 15.2292 37.04 16.2622 34.974 18.3281C32.9081 20.3941 31.8751 22.9028 31.8751 25.8542Z" fill="#101763"/>
</g>
</svg>
