<svg width="46" height="46" viewBox="0 0 46 46" fill="none" xmlns="http://www.w3.org/2000/svg">
<mask id="mask0_1574_852" style="mask-type:alpha" maskUnits="userSpaceOnUse" x="0" y="0" width="46" height="46">
<rect width="46" height="46" fill="#D9D9D9"/>
</mask>
<g mask="url(#mask0_1574_852)">
<path d="M10.7626 40.25C9.90506 40.25 9.17463 39.9484 8.57136 39.3451C7.96812 38.7419 7.6665 38.0114 7.6665 37.1539V16.5128C7.6665 15.6552 7.96812 14.9248 8.57136 14.3215C9.17463 13.7183 9.90506 13.4167 10.7626 13.4167H15.3332C15.3332 11.2813 16.0771 9.46969 17.565 7.98182C19.0529 6.49394 20.8645 5.75 22.9998 5.75C25.1352 5.75 26.9468 6.49394 28.4347 7.98182C29.9226 9.46969 30.6665 11.2813 30.6665 13.4167H35.237C36.0946 13.4167 36.825 13.7183 37.4283 14.3215C38.0316 14.9248 38.3332 15.6552 38.3332 16.5128V37.1539C38.3332 38.0114 38.0316 38.7419 37.4283 39.3451C36.825 39.9484 36.0946 40.25 35.237 40.25H10.7626ZM10.7626 38.3333H35.237C35.5319 38.3333 35.8022 38.2105 36.0479 37.9648C36.2936 37.719 36.4165 37.4487 36.4165 37.1539V16.5128C36.4165 16.218 36.2936 15.9477 36.0479 15.7019C35.8022 15.4562 35.5319 15.3333 35.237 15.3333H10.7626C10.4678 15.3333 10.1975 15.4562 9.95175 15.7019C9.70603 15.9477 9.58317 16.218 9.58317 16.5128V37.1539C9.58317 37.4487 9.70603 37.719 9.95175 37.9648C10.1975 38.2105 10.4678 38.3333 10.7626 38.3333ZM22.9998 24.9167C25.1352 24.9167 26.9468 24.1727 28.4347 22.6849C29.9226 21.197 30.6665 19.3854 30.6665 17.25H28.7498C28.7498 18.8472 28.1908 20.2049 27.0728 21.3229C25.9547 22.441 24.5971 23 22.9998 23C21.4026 23 20.045 22.441 18.9269 21.3229C17.8089 20.2049 17.2498 18.8472 17.2498 17.25H15.3332C15.3332 19.3854 16.0771 21.197 17.565 22.6849C19.0529 24.1727 20.8645 24.9167 22.9998 24.9167ZM17.2498 13.4167H28.7498C28.7498 11.8194 28.1908 10.4618 27.0728 9.34375C25.9547 8.22569 24.5971 7.66667 22.9998 7.66667C21.4026 7.66667 20.045 8.22569 18.9269 9.34375C17.8089 10.4618 17.2498 11.8194 17.2498 13.4167Z" fill="#FF0C15"/>
</g>
</svg>
