<svg width="124" height="26" viewBox="0 0 124 26" fill="none" xmlns="http://www.w3.org/2000/svg">
<g clip-path="url(#clip0_264_2667)">
<path d="M24.4189 9.51823C21.8302 12.1718 17.6143 12.1883 15.0053 9.55943C12.3922 6.93471 12.3719 2.65357 14.9607 0L24.4189 9.51823Z" fill="#D81100"/>
<path d="M12.5584 25.3902C5.65237 25.419 0.0326018 19.7617 0.000141033 12.7528C-0.0323197 5.73978 5.54281 0.0329636 12.4448 0L12.5584 25.3902Z" fill="#D81100"/>
<path d="M45.6642 21.0679C44.5687 21.8426 43.2175 22.2258 41.6107 22.2258C40.5151 22.2258 39.5494 22.0445 38.7176 21.6819C37.8858 21.3193 37.1839 20.8084 36.6158 20.1532C36.0477 19.4981 35.6217 18.7275 35.3376 17.8499C35.0536 16.9722 34.9116 16.0204 34.9116 14.9903C34.9116 13.9602 35.0536 12.9795 35.3376 12.1019C35.6217 11.2242 36.0396 10.4619 36.5874 9.81502C37.1352 9.16811 37.8209 8.66129 38.6446 8.29869C39.4683 7.93609 40.3975 7.75479 41.4362 7.75479C42.475 7.75479 43.4082 7.92785 44.24 8.26985C45.0718 8.61185 45.7575 9.11042 46.2972 9.75733C46.8369 10.4042 47.1736 11.2077 47.3116 12.1595H51.5437C51.3651 10.5196 50.8458 9.08982 49.9856 7.87017C49.1253 6.65052 47.9689 5.69457 46.5204 5.01058C45.0718 4.32247 43.3757 3.98047 41.4362 3.98047C39.4967 3.98047 37.9629 4.2895 36.6036 4.91169C35.2403 5.52976 34.1244 6.35796 33.2561 7.38396C32.3837 8.41407 31.7386 9.55955 31.3166 10.8163C30.8946 12.073 30.6836 13.3504 30.6836 14.6483V15.2787C30.6836 16.4613 30.8905 17.6768 31.3003 18.9253C31.7142 20.1738 32.3553 21.3358 33.2236 22.4112C34.096 23.4866 35.22 24.3561 36.6036 25.0112C37.9832 25.6705 39.6549 25.996 41.6107 25.996C43.5664 25.996 45.4005 25.6252 46.8693 24.8835C48.3382 24.1377 49.4946 23.1488 50.3345 21.9085C51.1744 20.6683 51.6938 19.3044 51.8926 17.821H47.6606C47.4252 19.2137 46.7598 20.2974 45.6642 21.0679Z" fill="#101763"/>
<path d="M62.6206 9.44415H62.4502C61.2491 9.44415 60.2591 9.72847 59.48 10.3012C58.7537 10.8327 58.1978 11.595 57.8043 12.5757V4.58203H53.8887V25.4603H57.8043V16.4819C57.8043 15.4518 58.1005 14.6194 58.6929 13.9808C59.2853 13.3421 60.0603 13.0248 61.0138 13.0248C61.8984 13.0248 62.6206 13.3133 63.1846 13.8984C63.7486 14.4793 64.0286 15.2581 64.0286 16.2305V25.4686H67.9442V16.6014C67.9442 14.2774 67.4938 12.5056 66.593 11.2819C65.6922 10.0622 64.3694 9.4524 62.6206 9.4524" fill="#101763"/>
<path d="M75.8854 13.2885C76.486 12.8806 77.2163 12.6746 78.0806 12.6746C78.9448 12.6746 79.659 12.8641 80.2189 13.2473C80.7829 13.6305 81.209 14.1703 81.5011 14.8749C81.6675 15.2746 81.7771 15.7278 81.8501 16.2181H74.1731C74.2502 15.7814 74.3638 15.3817 74.514 15.015C74.8223 14.2733 75.2808 13.6964 75.8814 13.2844M82.2315 10.4825C81.1157 9.74904 79.728 9.38232 78.0765 9.38232C76.8187 9.38232 75.7069 9.60483 74.7412 10.054C73.7714 10.5031 72.9721 11.1005 72.335 11.8546C71.698 12.6086 71.2111 13.4657 70.8865 14.4299C70.5578 15.3941 70.3955 16.3871 70.3955 17.4172V17.9611C70.3955 18.9541 70.5578 19.9265 70.8865 20.8784C71.2151 21.8302 71.702 22.6914 72.3513 23.466C73.0005 24.2406 73.8161 24.8546 74.8021 25.312C75.788 25.7693 76.9363 25.996 78.251 25.996C79.5657 25.996 80.6288 25.7776 81.6147 25.3408C82.6007 24.904 83.4123 24.2819 84.0493 23.4825C84.6863 22.6831 85.1205 21.7478 85.3437 20.6765H81.7121C81.5417 21.2492 81.1603 21.7313 80.5557 22.1227C79.9552 22.5142 79.1842 22.7078 78.2469 22.7078C77.3096 22.7078 76.5022 22.4936 75.8814 22.0651C75.2606 21.6365 74.8021 21.0473 74.5018 20.2933C74.307 19.8029 74.1812 19.259 74.1123 18.678H85.5952V17.2194C85.5952 15.8473 85.3153 14.5658 84.7513 13.3709C84.1873 12.1801 83.3473 11.2159 82.2315 10.4825Z" fill="#101763"/>
<path d="M95.4179 22.1967H94.0139L90.3865 9.93018H86.3613L91.1493 25.456H92.3016H94.5901H94.9797H96.4404H98.1649L102.304 9.93018H98.53L95.4179 22.1967Z" fill="#101763"/>
<path d="M120.088 4.58203H118.173V7.55699H120.088V25.4562H124V7.55699V4.58203H120.088Z" fill="#101763"/>
<path d="M112.205 19.712C112.168 20.5484 111.998 21.2118 111.697 21.698C111.397 22.1842 111.016 22.5262 110.557 22.724C110.099 22.9259 109.595 23.0248 109.052 23.0248C108.151 23.0248 107.461 22.8064 106.982 22.3697C106.504 21.9329 106.264 21.3601 106.264 20.6514C106.264 19.9427 106.504 19.3741 106.982 18.9373C107.461 18.5006 108.151 18.2822 109.052 18.2822H112.205V19.712ZM105.968 9.88059V12.8514H112.205V15.88H109.105C107.753 15.88 106.569 16.0613 105.554 16.4239C104.54 16.7864 103.761 17.3303 103.217 18.0555C102.673 18.7807 102.401 19.7161 102.401 20.8616C102.401 21.9082 102.629 22.8064 103.091 23.5481C103.55 24.2898 104.195 24.8625 105.019 25.2622C105.842 25.6619 106.812 25.8638 107.92 25.8638C109.027 25.8638 109.896 25.6701 110.638 25.2787C111.381 24.8872 111.961 24.3227 112.383 23.5769C112.574 23.2391 112.724 22.8517 112.85 22.4438V25.4641H115.974V9.87646H105.964L105.968 9.88059Z" fill="#101763"/>
</g>
<defs>
<clipPath id="clip0_264_2667">
<rect width="124" height="26" fill="white"/>
</clipPath>
</defs>
</svg>
