<svg width="85" height="85" viewBox="0 0 85 85" fill="none" xmlns="http://www.w3.org/2000/svg">
<mask id="mask0_1574_1039" style="mask-type:alpha" maskUnits="userSpaceOnUse" x="0" y="0" width="85" height="85">
<rect width="85" height="85" fill="#D9D9D9"/>
</mask>
<g mask="url(#mask0_1574_1039)">
<path d="M19.6559 28.3327V15.5827H22.1351V24.0827C24.7913 21.3084 27.8608 19.1391 31.3434 17.5749C34.8261 16.0106 38.4858 15.2285 42.3226 15.2285C49.8781 15.2285 56.3122 17.8848 61.6247 23.1973C66.9372 28.5098 69.5934 34.9438 69.5934 42.4994V43.7389H67.1143V42.4994C67.1143 35.5931 64.7089 29.7346 59.8981 24.9238C55.0874 20.1131 49.2288 17.7077 42.3226 17.7077C38.7809 17.7077 35.4459 18.4308 32.3174 19.877C29.1889 21.3231 26.3851 23.3153 23.9059 25.8535H32.4059V28.3327H19.6559ZM15.3174 46.041H17.7965C18.682 51.6487 21.1169 56.4004 25.1012 60.2962C29.0856 64.1921 33.8521 66.4646 39.4007 67.1139L40.9945 69.7702C34.3834 69.4751 28.6577 67.0992 23.8174 62.6426C18.9771 58.186 16.1438 52.6521 15.3174 46.041ZM49.9372 51.6191L41.3486 43.0306V24.791H43.8278V41.9681L51.2653 49.4056L49.9372 51.6191ZM68.0882 82.6973L67.557 78.7129C66.3174 78.5358 65.1368 78.1374 64.0153 77.5176C62.8938 76.8978 61.9198 76.0862 61.0934 75.0827L57.2861 76.3223L56.4007 74.9056L59.4997 72.515C58.9684 71.2754 58.7028 69.9768 58.7028 68.6191C58.7028 67.2615 58.9684 65.9039 59.4997 64.5462L56.2236 61.9785L57.2861 60.3848L61.182 61.89C62.0084 60.9455 62.9528 60.1782 64.0153 59.5879C65.0778 58.9976 66.2584 58.5844 67.557 58.3483L68.0882 54.3639H69.8591L70.3903 58.3483C71.7479 58.5844 72.9875 59.0271 74.1091 59.6764C75.2306 60.3257 76.175 61.1521 76.9424 62.1556L81.0153 60.5619L81.9007 62.3327L78.5361 64.9004C79.0084 66.258 79.2445 67.5566 79.2445 68.7962C79.2445 70.0358 79.0084 71.1869 78.5361 72.2494L82.0778 74.9056L81.1924 76.3223L76.9424 74.9056C76.175 75.9091 75.2306 76.7502 74.1091 77.429C72.9875 78.1079 71.7479 78.5358 70.3903 78.7129L69.8591 82.6973H68.0882ZM68.9736 76.3223C71.0986 76.3223 72.9285 75.5549 74.4632 74.0202C75.9979 72.4855 76.7653 70.6556 76.7653 68.5306C76.7653 66.4056 75.9979 64.5757 74.4632 63.041C72.9285 61.5063 71.0986 60.7389 68.9736 60.7389C66.8486 60.7389 65.0188 61.5063 63.4841 63.041C61.9493 64.5757 61.182 66.4056 61.182 68.5306C61.182 70.6556 61.9493 72.4855 63.4841 74.0202C65.0188 75.5549 66.8486 76.3223 68.9736 76.3223Z" fill="url(#paint0_linear_1574_1039)"/>
</g>
<defs>
<linearGradient id="paint0_linear_1574_1039" x1="48.6976" y1="15.2285" x2="48.6976" y2="82.6973" gradientUnits="userSpaceOnUse">
<stop stop-color="#FF0000"/>
<stop offset="1" stop-color="#1C1B1F"/>
</linearGradient>
</defs>
</svg>
