<svg width="85" height="85" viewBox="0 0 85 85" fill="none" xmlns="http://www.w3.org/2000/svg">
<mask id="mask0_1574_1036" style="mask-type:alpha" maskUnits="userSpaceOnUse" x="0" y="0" width="85" height="85">
<rect width="85" height="85" fill="#D9D9D9"/>
</mask>
<g mask="url(#mask0_1574_1036)">
<path d="M49.583 49.0527V35.9486H56.6663V20.7194H49.583V7.61523H66.2288V20.7194H59.1455V35.9486H66.2288V49.0527H49.583ZM52.0622 46.5736H63.7497V38.4277H52.0622V46.5736ZM52.0622 18.2402H63.7497V10.0944H52.0622V18.2402ZM18.7705 77.3861V64.2819H25.8538V49.0527H18.7705V35.9486H25.8538V20.7194H18.7705V7.61523H35.4163V20.7194H28.333V35.9486H35.4163V49.0527H28.333V64.2819H35.4163V77.3861H18.7705ZM21.2497 74.9069H32.9372V66.7611H21.2497V74.9069ZM21.2497 46.5736H32.9372V38.4277H21.2497V46.5736ZM21.2497 18.2402H32.9372V10.0944H21.2497V18.2402Z" fill="url(#paint0_linear_1574_1036)"/>
</g>
<defs>
<linearGradient id="paint0_linear_1574_1036" x1="42.4997" y1="7.61523" x2="42.4997" y2="77.3861" gradientUnits="userSpaceOnUse">
<stop stop-color="#1C1B1F"/>
<stop offset="1" stop-color="#FF0000"/>
</linearGradient>
</defs>
</svg>
