<svg width="85" height="85" viewBox="0 0 85 85" fill="none" xmlns="http://www.w3.org/2000/svg">
<mask id="mask0_1580_3178" style="mask-type:alpha" maskUnits="userSpaceOnUse" x="0" y="0" width="85" height="85">
<rect width="85" height="85" fill="#D9D9D9"/>
</mask>
<g mask="url(#mask0_1580_3178)">
<path d="M42.3229 73.3125C38.1319 73.3125 34.1771 72.5009 30.4583 70.8776C26.7396 69.2543 23.4931 67.0556 20.7188 64.2813C17.9444 61.5069 15.7457 58.2457 14.1224 54.4974C12.4991 50.7491 11.6875 46.75 11.6875 42.5C11.6875 38.191 12.5139 34.1623 14.1667 30.4141C15.8194 26.6658 18.0773 23.4045 20.9401 20.6302C23.803 17.8559 27.1675 15.6719 31.0339 14.0781C34.9002 12.4844 39.0174 11.6875 43.3854 11.6875C47.3403 11.6875 51.1181 12.3516 54.7188 13.6797C58.3194 15.0078 61.4922 16.8524 64.237 19.2135C66.9818 21.5747 69.1806 24.3932 70.8333 27.6693C72.4861 30.9453 73.3125 34.5313 73.3125 38.4271C73.3125 43.5035 71.8811 47.6354 69.0182 50.8229C66.1554 54.0104 62.0382 55.6042 56.6667 55.6042H50.4688C48.6979 55.6042 47.1927 56.224 45.9531 57.4635C44.7135 58.7031 44.0938 60.2083 44.0938 61.9792C44.0938 63.691 44.5365 65.0191 45.4219 65.9635C46.3073 66.908 46.75 68 46.75 69.2396C46.75 70.5972 46.3663 71.6155 45.599 72.2943C44.8316 72.9731 43.7396 73.3125 42.3229 73.3125ZM23.0208 43.7396C23.8472 43.7396 24.5556 43.4444 25.1458 42.8542C25.7361 42.2639 26.0313 41.5556 26.0313 40.7292C26.0313 39.9028 25.7361 39.1944 25.1458 38.6042C24.5556 38.0139 23.8472 37.7188 23.0208 37.7188C22.1944 37.7188 21.4861 38.0139 20.8958 38.6042C20.3056 39.1944 20.0104 39.9028 20.0104 40.7292C20.0104 41.5556 20.3056 42.2639 20.8958 42.8542C21.4861 43.4444 22.1944 43.7396 23.0208 43.7396ZM33.6458 29.5729C34.4722 29.5729 35.1806 29.2778 35.7708 28.6875C36.3611 28.0972 36.6563 27.3889 36.6563 26.5625C36.6563 25.7361 36.3611 25.0278 35.7708 24.4375C35.1806 23.8472 34.4722 23.5521 33.6458 23.5521C32.8194 23.5521 32.1111 23.8472 31.5208 24.4375C30.9306 25.0278 30.6354 25.7361 30.6354 26.5625C30.6354 27.3889 30.9306 28.0972 31.5208 28.6875C32.1111 29.2778 32.8194 29.5729 33.6458 29.5729ZM51.3542 29.5729C52.1806 29.5729 52.8889 29.2778 53.4792 28.6875C54.0694 28.0972 54.3646 27.3889 54.3646 26.5625C54.3646 25.7361 54.0694 25.0278 53.4792 24.4375C52.8889 23.8472 52.1806 23.5521 51.3542 23.5521C50.5278 23.5521 49.8194 23.8472 49.2292 24.4375C48.6389 25.0278 48.3438 25.7361 48.3438 26.5625C48.3438 27.3889 48.6389 28.0972 49.2292 28.6875C49.8194 29.2778 50.5278 29.5729 51.3542 29.5729ZM61.9792 43.7396C62.8056 43.7396 63.5139 43.4444 64.1042 42.8542C64.6944 42.2639 64.9896 41.5556 64.9896 40.7292C64.9896 39.9028 64.6944 39.1944 64.1042 38.6042C63.5139 38.0139 62.8056 37.7188 61.9792 37.7188C61.1528 37.7188 60.4444 38.0139 59.8542 38.6042C59.2639 39.1944 58.9688 39.9028 58.9688 40.7292C58.9688 41.5556 59.2639 42.2639 59.8542 42.8542C60.4444 43.4444 61.1528 43.7396 61.9792 43.7396ZM42.3229 70.8333C42.9722 70.8333 43.4592 70.7005 43.7839 70.4349C44.1085 70.1693 44.2708 69.7708 44.2708 69.2396C44.2708 68.4132 43.8281 67.5573 42.9427 66.6719C42.0573 65.7865 41.6146 64.2812 41.6146 62.1562C41.6146 59.559 42.4705 57.4045 44.1823 55.6927C45.8941 53.9809 47.9896 53.125 50.4688 53.125H56.6667C61.2708 53.125 64.783 51.7674 67.2031 49.0521C69.6233 46.3368 70.8333 42.7951 70.8333 38.4271C70.8333 31.2257 68.059 25.3819 62.5104 20.8958C56.9618 16.4097 50.5868 14.1667 43.3854 14.1667C35.1806 14.1667 28.2596 16.9115 22.6224 22.401C16.9852 27.8906 14.1667 34.5903 14.1667 42.5C14.1667 50.3507 16.9262 57.0356 22.4453 62.5547C27.9644 68.0738 34.5903 70.8333 42.3229 70.8333Z" fill="#101763"/>
</g>
</svg>
