<svg width="49" height="49" viewBox="0 0 49 49" fill="none" xmlns="http://www.w3.org/2000/svg">
<path d="M18.5625 35.1875L35.1875 24.5L18.5625 13.8125V35.1875ZM24.5 48.25C21.2146 48.25 18.1271 47.6266 15.2375 46.3797C12.3479 45.1328 9.83438 43.4406 7.69688 41.3031C5.55937 39.1656 3.86719 36.6521 2.62031 33.7625C1.37344 30.8729 0.75 27.7854 0.75 24.5C0.75 21.2146 1.37344 18.1271 2.62031 15.2375C3.86719 12.3479 5.55937 9.83438 7.69688 7.69688C9.83438 5.55937 12.3479 3.86719 15.2375 2.62031C18.1271 1.37344 21.2146 0.75 24.5 0.75C27.7854 0.75 30.8729 1.37344 33.7625 2.62031C36.6521 3.86719 39.1656 5.55937 41.3031 7.69688C43.4406 9.83438 45.1328 12.3479 46.3797 15.2375C47.6266 18.1271 48.25 21.2146 48.25 24.5C48.25 27.7854 47.6266 30.8729 46.3797 33.7625C45.1328 36.6521 43.4406 39.1656 41.3031 41.3031C39.1656 43.4406 36.6521 45.1328 33.7625 46.3797C30.8729 47.6266 27.7854 48.25 24.5 48.25Z" fill="white"/>
</svg>
