<svg width="46" height="46" viewBox="0 0 46 46" fill="none" xmlns="http://www.w3.org/2000/svg">
<mask id="mask0_1574_846" style="mask-type:alpha" maskUnits="userSpaceOnUse" x="0" y="0" width="46" height="46">
<rect width="46" height="46" fill="#D9D9D9"/>
</mask>
<g mask="url(#mask0_1574_846)">
<path d="M6.23301 19.3891C6.08064 18.8608 5.96207 18.345 5.87733 17.8418C5.79255 17.3386 5.75015 16.8187 5.75015 16.2819C5.75015 13.8443 6.57825 11.7992 8.23444 10.1467C9.89063 8.49423 11.9375 7.66797 14.3752 7.66797C16.0289 7.66797 17.6022 8.10535 19.0949 8.98012C20.5877 9.85492 21.8895 11.1032 23.0002 12.725C24.1108 11.0786 25.4046 9.82422 26.8814 8.96172C28.3582 8.09922 29.9395 7.66797 31.6252 7.66797C34.0136 7.66797 36.036 8.4758 37.6922 10.0915C39.3484 11.7071 40.201 13.7092 40.2502 16.0976V16.1198C39.9381 15.8961 39.615 15.6953 39.2808 15.5171C38.9466 15.3389 38.5891 15.1835 38.2082 15.0508C37.933 13.4708 37.1835 12.1648 35.9597 11.1327C34.7361 10.1007 33.2912 9.58464 31.6252 9.58464C30.1041 9.58464 28.7108 10.0165 27.4453 10.8802C26.1799 11.744 24.9549 13.0813 23.7705 14.8923H22.2298C21.0773 13.1378 19.8524 11.8146 18.555 10.9226C17.2575 10.0306 15.8642 9.58464 14.3752 9.58464C12.4904 9.58464 10.9012 10.2315 9.60745 11.5253C8.3137 12.819 7.66682 14.4046 7.66682 16.2819C7.66682 16.828 7.71474 17.3484 7.81057 17.8433C7.9064 18.3382 8.06244 18.8534 8.27867 19.3891H6.23301ZM23.0002 38.1872L20.7849 36.1895C19.5538 35.0714 18.4358 34.0418 17.4308 33.1007C16.4257 32.1595 15.4932 31.2749 14.6331 30.4468H17.4381C18.2569 31.19 19.1201 31.9888 20.0278 32.8434C20.9356 33.698 21.9263 34.6143 23.0002 35.5923C23.7152 34.9485 24.3842 34.3391 25.0071 33.7641C25.6301 33.1891 26.2266 32.6325 26.7966 32.0944C27.0222 32.334 27.2598 32.5536 27.5095 32.7533C27.7591 32.9529 28.0117 33.151 28.2673 33.3476C27.8004 33.7899 27.309 34.2506 26.793 34.7298C26.2769 35.209 25.7363 35.7066 25.1712 36.2226L23.0002 38.1872ZM34.5015 31.7C34.105 31.7 33.7722 31.5659 33.5031 31.2977C33.234 31.0295 33.0995 30.6972 33.0995 30.3007C33.0995 29.9042 33.2336 29.5714 33.5018 29.3023C33.77 29.0333 34.1024 28.8987 34.4989 28.8987C34.8954 28.8987 35.2281 29.0328 35.4972 29.3011C35.7663 29.5693 35.9008 29.9016 35.9008 30.2981C35.9008 30.6946 35.7667 31.0273 35.4985 31.2964C35.2303 31.5655 34.8979 31.7 34.5015 31.7ZM33.5418 26.1712V18.2096H35.4585V26.1712H33.5418ZM3.6123 25.8763V23.9596H11.6992L14.7953 19.3559C14.955 19.1205 15.1478 18.9504 15.3739 18.8458C15.6001 18.7411 15.836 18.6888 16.0817 18.6888C16.3275 18.6888 16.5615 18.7422 16.7839 18.8491C17.0063 18.956 17.201 19.1286 17.3681 19.367L20.4421 23.9596H24.0396C24.0248 24.1317 24.0076 24.2925 23.988 24.4423C23.9683 24.592 23.9585 24.7536 23.9585 24.927C23.9585 25.1003 23.9683 25.2589 23.988 25.4026C24.0076 25.5464 24.0248 25.7043 24.0396 25.8763H20.2358C19.9654 25.8763 19.7234 25.8149 19.5096 25.692C19.2958 25.5692 19.1091 25.4045 18.9493 25.1981L16.0707 20.8856L13.192 25.1981C13.0323 25.4045 12.8455 25.5692 12.6317 25.692C12.4179 25.8149 12.173 25.8763 11.8968 25.8763H3.6123Z" fill="#FF0C15"/>
</g>
</svg>
