<svg width="126" height="126" viewBox="0 0 126 126" fill="none" xmlns="http://www.w3.org/2000/svg">
<path d="M62.9717 125.943C97.75 125.943 125.943 97.75 125.943 62.9717C125.943 28.1934 97.75 0 62.9717 0C28.1934 0 0 28.1934 0 62.9717C0 97.75 28.1934 125.943 62.9717 125.943Z" fill="#D81100"/>
<path d="M21.8389 48.5442L13.918 45.1495L14.5969 43.6219L22.5179 47.0166L21.8389 48.5442ZM20.0284 46.2245L18.7271 45.6587L19.4061 44.1311C19.5192 43.8482 19.5758 43.5653 19.5758 43.2824C19.5758 42.9995 19.4626 42.7732 19.2929 42.6035C19.1232 42.3772 18.8969 42.2074 18.614 42.0943C18.3311 41.9811 18.0482 41.9245 17.7653 41.9245C17.4824 41.9245 17.2561 42.0377 17.0298 42.2074C16.8035 42.3772 16.6337 42.6035 16.5206 42.8864L15.8416 44.414L14.5403 43.8482L15.1627 42.4337C15.4456 41.7548 15.7851 41.2456 16.1811 40.9061C16.5772 40.5101 17.0298 40.3404 17.539 40.2272C18.0482 40.1706 18.5574 40.2272 19.1232 40.4535H19.2929C19.8587 40.7364 20.2547 41.0759 20.5376 41.5285C20.8205 41.9245 20.9903 42.4337 20.9903 42.9995C20.9903 43.5653 20.8771 44.1877 20.5942 44.81L19.9719 46.2245H20.0284Z" fill="white"/>
<path d="M25.7989 40.2837L18.7266 35.4746L19.6884 34.1167L26.7607 38.9259L25.7989 40.2837ZM26.6475 39.0956L25.4594 38.2469L27.5528 35.1917L28.7409 36.0404L26.6475 39.0956Z" fill="white"/>
<path d="M29.9294 34.3998L26.1387 26.1959L28.1189 24.3289L36.153 28.4591L34.9083 29.6472L27.9492 26.0262L28.5715 25.7999L27.4966 26.8183L27.7794 26.1959L31.1176 33.2682L29.9294 34.3998ZM29.8163 31.3446L29.2505 29.9301L31.7399 27.5538L33.0978 28.2328L29.8163 31.3446Z" fill="white"/>
<path d="M37.5121 23.763L32.5332 20.5946L34.0042 19.6893L37.8516 22.1788L37.4555 22.2919L38.4174 21.7261L38.1345 22.009L37.5121 17.5393L38.87 16.6907L39.6055 22.4617L37.5121 23.763ZM39.6055 26.309L37.7384 23.3103L39.1529 22.4617L41.02 25.4603L39.6055 26.309Z" fill="white"/>
<path d="M52.5036 20.9906C51.7681 21.1603 51.1457 21.2169 50.5799 21.1038C50.0141 20.9906 49.5615 20.7643 49.1655 20.4248C48.826 20.0853 48.5431 19.6327 48.43 19.1235L50.0141 18.7275C50.0141 18.7275 50.1839 19.1235 50.3536 19.3498C50.5233 19.5196 50.7497 19.6327 51.0891 19.6893C51.372 19.7459 51.7681 19.6893 52.2207 19.6327C52.6167 19.5196 52.9562 19.4064 53.1825 19.2367C53.4088 19.0669 53.5786 18.8406 53.6352 18.6143C53.7483 18.388 53.7483 18.1617 53.6352 17.9354C53.5786 17.6525 53.4088 17.4262 53.0694 17.313C52.7865 17.1998 52.3339 17.1998 51.8246 17.313L51.0891 17.4262C50.297 17.5393 49.5615 17.4262 48.9957 17.1433C48.4299 16.8604 48.0339 16.3512 47.8642 15.6157C47.751 15.1064 47.751 14.5972 47.8642 14.1446C48.0339 13.692 48.3168 13.2959 48.7128 13.013C49.1089 12.6736 49.6181 12.4473 50.2405 12.2775C50.8628 12.1078 51.4286 12.1078 51.9378 12.221C52.447 12.3341 52.8996 12.5604 53.2391 12.8999C53.5786 13.2394 53.8049 13.692 53.9746 14.2012L52.3904 14.5972C52.3904 14.5972 52.2207 14.2012 52.1075 14.0315C51.9378 13.8617 51.7681 13.7486 51.4852 13.692C51.2023 13.6354 50.9194 13.692 50.6365 13.692C50.297 13.7486 50.0707 13.9183 49.901 14.0315C49.7312 14.1446 49.6181 14.3709 49.5615 14.5972C49.5049 14.8236 49.5049 14.9933 49.5615 15.2196C49.6181 15.4459 49.7878 15.6722 50.0141 15.842C50.2405 16.0117 50.5799 16.0117 50.976 15.9551L51.7115 15.842C52.3339 15.7288 52.8996 15.7288 53.3523 15.842C53.8615 15.9551 54.2575 16.1249 54.597 16.4078C54.9365 16.6906 55.1628 17.0867 55.2759 17.5959C55.3891 18.1051 55.3891 18.6143 55.2194 19.0669C55.0496 19.5196 54.7667 19.9156 54.2575 20.2551C53.8049 20.5945 53.2391 20.8774 52.5602 21.0472L52.5036 20.9906Z" fill="white"/>
<path d="M58.7284 19.5196L58.6152 10.9763H60.256L60.3692 19.5196H58.7284ZM60.0297 15.9552V14.4841L64.556 14.4275V15.8986L60.0297 15.9552ZM64.3296 19.463L64.2165 10.9197H65.8573L65.9704 19.463H64.3296Z" fill="white"/>
<path d="M73.3243 20.9907C72.5888 20.821 71.9664 20.5381 71.4572 20.0855C70.948 19.6894 70.6086 19.2368 70.3257 18.7276C70.0994 18.2184 69.9296 17.6526 69.873 17.1434C69.873 16.5776 69.873 16.125 69.9862 15.6158V15.3895C70.1559 14.8803 70.3822 14.4277 70.7217 13.9185C71.0046 13.4658 71.4007 13.0698 71.9099 12.7303C72.3625 12.3908 72.9283 12.2211 73.5506 12.1079C74.173 11.9948 74.7954 12.0514 75.5309 12.2211C76.2664 12.3908 76.8888 12.6737 77.3414 13.0698C77.8506 13.4658 78.1901 13.9184 78.473 14.3711C78.7558 14.8803 78.869 15.3895 78.9256 15.9553C78.9256 16.5211 78.9256 17.0303 78.8124 17.5395V17.7658C78.6427 18.2184 78.4164 18.671 78.1335 19.1237C77.8506 19.5763 77.4545 19.9723 77.0019 20.3118C76.5493 20.6513 75.9835 20.8776 75.3611 20.9907C74.7388 21.1039 74.0598 21.1039 73.3243 20.8776V20.9907ZM73.7204 19.4631C74.173 19.5763 74.569 19.5763 74.9085 19.5197C75.248 19.4631 75.644 19.2934 75.9269 19.1237C76.2098 18.8973 76.4927 18.671 76.719 18.3316C76.9453 17.9921 77.0585 17.6526 77.1717 17.2566C77.2848 16.8605 77.2848 16.4645 77.2848 16.0684C77.2848 15.6724 77.1151 15.3329 76.9453 14.9934C76.7756 14.654 76.5493 14.3711 76.2098 14.1448C75.9269 13.9184 75.5309 13.7487 75.1348 13.6356C74.7388 13.5224 74.3427 13.5224 73.9467 13.579C73.5506 13.579 73.2112 13.7487 72.9283 13.975C72.6454 14.2013 72.3625 14.4277 72.1362 14.7671C71.9099 15.1066 71.7401 15.4461 71.6836 15.8421C71.5704 16.2382 71.5704 16.6342 71.627 16.9737C71.627 17.3697 71.7401 17.7092 71.9099 18.0487C72.0796 18.3881 72.3059 18.671 72.6454 18.8973C72.9283 19.1237 73.3243 19.2934 73.7204 19.4066V19.4631Z" fill="white"/>
<path d="M81.4726 23.4235L83.8489 14.9368L85.3199 15.7854L83.1134 23.1406L82.8305 22.688L83.8489 23.2538H83.2831L88.0357 17.7657L89.2804 18.5012L83.6791 24.7814L81.416 23.4801L81.4726 23.4235ZM85.9423 26.0261L88.4317 17.9354L89.733 18.6709L87.5831 25.6301L87.3002 25.1209L88.3186 25.6867H87.8094L92.8448 20.0288L94.2593 20.8209L88.3186 27.2708L85.9989 25.9695L85.9423 26.0261Z" fill="white"/>
<path d="M94.7109 33.0419L101.387 27.6104L102.462 28.9117L95.7859 34.3432L94.7109 33.0419ZM97.7096 32.1932L98.7846 31.3445L100.142 33.0419C100.142 33.0419 100.539 33.4379 100.765 33.5511C100.991 33.6642 101.274 33.6642 101.5 33.6077C101.727 33.6077 102.01 33.4379 102.236 33.2682C102.462 33.0985 102.632 32.8721 102.688 32.6458C102.802 32.4195 102.802 32.1932 102.745 31.9103C102.745 31.684 102.575 31.4011 102.406 31.1748L101.048 29.4774L102.179 28.5722L103.424 30.1564C103.877 30.6656 104.16 31.2314 104.329 31.7406C104.499 32.2498 104.499 32.759 104.329 33.2116C104.16 33.6642 103.877 34.1169 103.367 34.5129L103.198 34.6261C102.745 35.0221 102.236 35.2484 101.727 35.305C101.217 35.305 100.765 35.2484 100.256 34.9655C99.803 34.6826 99.3504 34.2866 98.8977 33.7774L97.653 32.2498L97.7096 32.1932ZM97.9925 37.1155L99.2372 32.759L100.425 34.23L99.2372 38.6997L97.9925 37.1721V37.1155Z" fill="white"/>
<path d="M100.596 41.0194L108.234 37.1155L108.969 38.5865L101.331 42.4904L100.596 41.0194ZM101.218 42.2641L102.463 41.6417L104.217 45.093L102.972 45.7154L101.218 42.2641ZM104.5 40.5668L105.744 39.9444L107.385 43.1128L106.14 43.7351L104.5 40.5668ZM107.611 38.9826L108.856 38.3602L110.553 41.7549L109.309 42.3773L107.611 38.9826Z" fill="white"/>
<path d="M104.16 48.7139L112.364 46.3376L112.817 47.9218L104.613 50.2981L104.16 48.7139ZM104.556 50.0718L105.914 49.6758L106.989 53.4099L105.631 53.806L104.556 50.0718ZM108.007 49.0534L109.365 48.6574L110.327 52.1086L108.969 52.5047L108.007 49.0534ZM111.402 48.0916L112.76 47.6955L113.778 51.3165L112.421 51.7126L111.402 48.0916Z" fill="white"/>
<path d="M106.141 56.8612L114.684 56.0691L114.854 57.7099L106.367 58.502L106.197 56.8612H106.141ZM106.254 58.2756L107.725 58.1625L108.064 61.8401L106.593 61.9532L106.254 58.2756Z" fill="white"/>
<path d="M104.331 76.8899L112.309 80.1714L111.687 81.699L103.709 78.4175L104.331 76.8899ZM106.198 79.2096L107.556 79.7754L106.934 81.303C106.821 81.5859 106.764 81.8688 106.821 82.1517C106.821 82.4346 106.991 82.6609 107.104 82.8306C107.217 83.0004 107.5 83.1701 107.783 83.2832C108.066 83.3964 108.348 83.453 108.631 83.3964C108.914 83.3964 109.141 83.2832 109.367 83.1135C109.593 82.9438 109.763 82.7175 109.876 82.4346L110.498 80.907L111.856 81.4727L111.29 82.8872C111.008 83.5661 110.668 84.0753 110.272 84.4714C109.876 84.8674 109.423 85.0938 108.914 85.1503C108.405 85.2069 107.896 85.1503 107.33 84.924H107.16C106.651 84.6411 106.198 84.3017 105.916 83.9056C105.633 83.5096 105.463 83.0004 105.406 82.4346C105.406 81.8688 105.519 81.2464 105.802 80.6241L106.368 79.2096H106.198Z" fill="white"/>
<path d="M99.6911 86.3952L100.936 87.1873L98.899 90.2425L97.6543 89.4504L99.6911 86.3952ZM100.427 85.207L107.556 89.9596L106.65 91.3741L99.5214 86.6215L100.427 85.207Z" fill="white"/>
<path d="M96.4112 91.1477L100.315 99.295L98.3348 101.219L90.2441 97.2016L91.4889 96.0134L98.448 99.5779L97.8256 99.8042L98.9006 98.7858L98.6177 99.4081L95.223 92.3924L96.4112 91.2043V91.1477ZM96.5243 94.2029L97.1467 95.6174L94.6573 98.0503L93.2994 97.3713L96.5243 94.2029Z" fill="white"/>
<path d="M86.8481 99.3516L88.7151 102.35L87.3007 103.255L85.4336 100.257L86.8481 99.3516ZM88.998 101.898L93.9769 105.009L92.5059 105.915L88.602 103.482L88.998 103.369L88.0362 103.934L88.3191 103.652L88.998 108.121L87.6401 108.97L86.8481 103.255L88.9415 101.954L88.998 101.898Z" fill="white"/>
<path d="M74.0059 104.84C74.7414 104.67 75.3638 104.613 75.9296 104.727C76.4953 104.84 76.948 105.066 77.344 105.406C77.6835 105.745 77.9664 106.198 78.0795 106.707L76.4953 107.103C76.4953 107.103 76.3256 106.707 76.1559 106.537C75.9861 106.367 75.7598 106.254 75.4204 106.198C75.1375 106.141 74.7414 106.198 74.3454 106.254C73.9493 106.367 73.6098 106.481 73.3835 106.707C73.1572 106.877 72.9875 107.103 72.9309 107.329C72.8743 107.556 72.8177 107.782 72.9309 108.008C72.9875 108.291 73.2138 108.517 73.4967 108.631C73.7796 108.744 74.2322 108.744 74.7414 108.631L75.4769 108.517C76.269 108.404 77.0045 108.461 77.5703 108.744C78.1361 109.027 78.5322 109.536 78.7019 110.271C78.8716 110.78 78.8716 111.29 78.7019 111.742C78.5322 112.195 78.2493 112.591 77.9098 112.93C77.5138 113.27 77.0045 113.496 76.4388 113.666C75.8164 113.836 75.2506 113.892 74.7414 113.779C74.2322 113.666 73.7796 113.44 73.4401 113.157C73.1006 112.817 72.8177 112.365 72.7046 111.855L74.2888 111.459C74.2888 111.459 74.4585 111.855 74.6283 112.025C74.798 112.195 74.9677 112.308 75.2506 112.365C75.4769 112.421 75.7598 112.365 76.0993 112.365C76.4388 112.252 76.6651 112.138 76.8348 111.969C77.0045 111.799 77.1177 111.629 77.1743 111.403C77.2309 111.177 77.2309 111.007 77.1743 110.78C77.1177 110.498 76.948 110.328 76.7217 110.158C76.4953 110.045 76.1559 109.988 75.7598 110.045L75.0243 110.158C74.4019 110.271 73.8362 110.271 73.3835 110.158C72.9309 110.045 72.4783 109.875 72.1388 109.592C71.7993 109.309 71.573 108.913 71.4599 108.404C71.3467 107.895 71.3467 107.386 71.4599 106.933C71.6296 106.481 71.9125 106.028 72.3651 105.688C72.8177 105.349 73.3835 105.066 74.0625 104.896L74.0059 104.84Z" fill="white"/>
<path d="M62.1798 106.537L62.4061 115.08H60.7654L60.5391 106.594H62.1798V106.537ZM66.5364 109.988V111.459L62.0101 111.572V110.101L66.5364 109.988ZM67.8377 106.367L68.064 114.911H66.4232L66.1969 106.424H67.8377V106.367Z" fill="white"/>
<path d="M53.1842 105.123C53.9197 105.292 54.5421 105.575 55.0513 105.971C55.5605 106.367 55.9 106.82 56.1828 107.329C56.4092 107.838 56.5789 108.404 56.6355 108.913C56.6355 109.479 56.6355 109.932 56.5789 110.441V110.667C56.4092 111.176 56.1828 111.686 55.9 112.138C55.6171 112.591 55.221 112.987 54.7684 113.326C54.3158 113.666 53.75 113.892 53.1842 114.005C52.5618 114.119 51.9395 114.119 51.2039 113.949C50.4684 113.779 49.8461 113.496 49.3934 113.1C48.8842 112.704 48.5448 112.308 48.2619 111.799C47.979 111.29 47.8092 110.78 47.7527 110.215C47.6961 109.649 47.7527 109.14 47.8658 108.63V108.404C48.0356 107.951 48.2619 107.499 48.5448 107.046C48.8277 106.594 49.2237 106.198 49.6763 105.858C50.129 105.519 50.6947 105.292 51.3171 105.123C51.9395 105.009 52.6184 105.009 53.3539 105.179L53.1842 105.123ZM52.8447 106.65C52.4487 106.537 51.996 106.537 51.6566 106.65C51.2605 106.707 50.9211 106.876 50.6382 107.103C50.3553 107.329 50.0724 107.555 49.8461 107.895C49.6198 108.234 49.5066 108.574 49.3934 108.97C49.2803 109.366 49.2803 109.762 49.3369 110.158C49.3369 110.554 49.5066 110.894 49.6763 111.233C49.8461 111.572 50.0724 111.799 50.4118 112.025C50.6947 112.251 51.0908 112.421 51.4868 112.534C51.8829 112.647 52.2789 112.647 52.675 112.534C53.071 112.478 53.4105 112.308 53.6934 112.138C53.9763 111.912 54.2592 111.686 54.4855 111.346C54.7118 111.007 54.825 110.667 54.9381 110.271C55.0513 109.875 55.0513 109.479 54.9947 109.14C54.9947 108.744 54.825 108.404 54.6552 108.065C54.4855 107.725 54.2592 107.442 53.9197 107.216C53.6368 106.99 53.2408 106.82 52.8447 106.707V106.65Z" fill="white"/>
<path d="M40.5106 100.257L38.1343 108.348L36.833 107.612L38.9264 100.596L39.2658 101.106L38.2474 100.54H38.7566L33.7777 106.254L32.3633 105.462L38.2474 98.9556L40.5671 100.257H40.5106ZM44.9803 102.746L42.7171 111.29L41.1895 110.441L43.2829 103.086L43.5658 103.538L42.5474 102.973H43.1132L38.4172 108.517L37.1724 107.838L42.7171 101.502L44.9803 102.746Z" fill="white"/>
<path d="M28.6865 94.2595L27.6681 95.1082L26.2536 93.4108C26.2536 93.4108 25.8576 93.0148 25.6313 92.9016C25.4049 92.7885 25.122 92.7885 24.8957 92.845C24.6694 92.845 24.3865 93.0148 24.1602 93.1845C23.9339 93.3542 23.7642 93.5806 23.7076 93.8069C23.5944 94.0332 23.5944 94.2595 23.651 94.5424C23.651 94.7687 23.8207 95.0516 23.9905 95.2779L25.4049 96.9753L24.33 97.8805L23.0286 96.3529C22.576 95.8437 22.2931 95.2779 22.1234 94.7687C21.9537 94.2595 21.9537 93.7503 22.1234 93.2977C22.2931 92.845 22.576 92.3924 23.0852 91.9964L23.255 91.8832C23.7076 91.4872 24.2168 91.2609 24.726 91.2043C25.2352 91.2043 25.6878 91.2043 26.197 91.5437C26.6497 91.8266 27.1023 92.1661 27.5549 92.7319L28.8562 94.2595H28.6865ZM31.6286 93.2977L25.0089 98.7858L23.9339 97.4845L30.5536 91.9964L31.6286 93.2977ZM28.2904 89.3372L27.1023 93.6937L25.9141 92.2793L27.0457 87.8096L28.2904 89.3372Z" fill="white"/>
<path d="M18.7291 87.5833L17.4844 88.2623L15.7305 84.9242L16.9752 84.2452L18.7291 87.5833ZM25.6883 85.4899L18.1068 89.507L17.3712 88.0926L24.9527 84.0755L25.6883 85.4899ZM21.7844 85.9426L20.5396 86.6215L18.8989 83.4531L20.1436 82.7742L21.8409 85.9426H21.7844ZM25.0093 84.2452L23.7646 84.9242L21.9541 81.4729L23.1988 80.7939L25.0093 84.2452Z" fill="white"/>
<path d="M14.7669 78.5308L13.409 78.9268L12.334 75.3058L13.6919 74.9097L14.7669 78.5308ZM22.0089 77.7952L13.805 80.2281L13.3524 78.6439L21.5563 76.211L22.0089 77.7952ZM18.105 77.5123L16.7471 77.9084L15.7287 74.4571L17.0866 74.0611L18.105 77.5123ZM21.6128 76.4939L20.255 76.89L19.1234 73.1558L20.4813 72.7598L21.6128 76.4939Z" fill="white"/>
<path d="M19.9729 69.648L11.4861 70.5532L11.3164 68.9124L19.8032 68.0072L19.9729 69.648ZM19.8032 68.2335L18.3321 68.4032L17.9361 64.7256L19.4071 64.5559L19.8032 68.2335Z" fill="white"/>
</svg>
